G04*
G04 #@! TF.GenerationSoftware,Altium Limited,Altium Designer,26.4.1 (12)*
G04*
G04 Layer_Physical_Order=2*
G04 Layer_Color=16711680*
%FSTAX44Y44*%
%MOMM*%
G71*
G04*
G04 #@! TF.SameCoordinates,17E444B0-1469-44B2-96D2-A362B26487A7*
G04*
G04*
G04 #@! TF.FilePolarity,Positive*
G04*
G01*
G75*
%ADD12C,0.2540*%
%ADD13R,1.2000X1.2000*%
%ADD14C,1.2000*%
%ADD15R,1.3700X1.3700*%
%ADD16C,1.3700*%
%ADD17R,1.8000X1.8000*%
%ADD18C,1.8000*%
%ADD19R,2.5500X2.5500*%
%ADD20C,2.5500*%
%ADD21R,2.5500X2.5500*%
%ADD22C,1.5300*%
%ADD23C,5.0000*%
%ADD24R,1.5300X1.5300*%
%ADD25C,0.8000*%
G36*
X00496147Y00513851D02*
X00495566Y00513554D01*
X00492059Y00511006D01*
X00488994Y00507941D01*
X00486446Y00504434D01*
X00484478Y00500572D01*
X00483138Y00496449D01*
X0048246Y00492168D01*
Y00487833D01*
X00483138Y00483551D01*
X00484478Y00479428D01*
X00486446Y00475566D01*
X00488994Y00472059D01*
X00492059Y00468994D01*
X00495566Y00466446D01*
X00499428Y00464478D01*
X00503551Y00463138D01*
X00507832Y0046246D01*
X00512168D01*
X00516449Y00463138D01*
X00520572Y00464478D01*
X00524434Y00466446D01*
X00527941Y00468994D01*
X00531006Y00472059D01*
X00533554Y00475566D01*
X00533851Y00476147D01*
X00536391Y00475538D01*
Y00044462D01*
X00533851Y00043853D01*
X00533554Y00044434D01*
X00531006Y00047941D01*
X00527941Y00051006D01*
X00524434Y00053554D01*
X00520572Y00055522D01*
X00516449Y00056862D01*
X00512168Y0005754D01*
X00507832D01*
X00503551Y00056862D01*
X00499428Y00055522D01*
X00495566Y00053554D01*
X00492059Y00051006D01*
X00488994Y00047941D01*
X00486446Y00044434D01*
X00484478Y00040572D01*
X00483138Y00036449D01*
X0048246Y00032167D01*
Y00027833D01*
X00483138Y00023551D01*
X00484478Y00019428D01*
X00486446Y00015566D01*
X00488994Y00012059D01*
X00492059Y00008994D01*
X00495566Y00006446D01*
X00496147Y00006149D01*
X00495538Y00003609D01*
X00044462D01*
X00043853Y00006149D01*
X00044434Y00006446D01*
X00047941Y00008994D01*
X00051006Y00012059D01*
X00053554Y00015566D01*
X00055522Y00019428D01*
X00056862Y00023551D01*
X0005754Y00027833D01*
Y00032167D01*
X00056862Y00036449D01*
X00055522Y00040572D01*
X00053554Y00044434D01*
X00051006Y00047941D01*
X00047941Y00051006D01*
X00044434Y00053554D01*
X00040572Y00055522D01*
X00036449Y00056862D01*
X00032167Y0005754D01*
X00027833D01*
X00023551Y00056862D01*
X00019428Y00055522D01*
X00015566Y00053554D01*
X00012059Y00051006D01*
X00008994Y00047941D01*
X00006446Y00044434D01*
X00006149Y00043853D01*
X00003609Y00044462D01*
Y00475538D01*
X00006149Y00476147D01*
X00006446Y00475566D01*
X00008994Y00472059D01*
X00012059Y00468994D01*
X00015566Y00466446D01*
X00019428Y00464478D01*
X00023551Y00463138D01*
X00027833Y0046246D01*
X00032167D01*
X00036449Y00463138D01*
X00040572Y00464478D01*
X00044434Y00466446D01*
X00047941Y00468994D01*
X00051006Y00472059D01*
X00053554Y00475566D01*
X00055522Y00479428D01*
X00056862Y00483551D01*
X0005754Y00487833D01*
Y00492168D01*
X00056862Y00496449D01*
X00055522Y00500572D01*
X00053554Y00504434D01*
X00051006Y00507941D01*
X00047941Y00511006D01*
X00044434Y00513554D01*
X00043853Y00513851D01*
X00044462Y00516391D01*
X00495538D01*
X00496147Y00513851D01*
D02*
G37*
%LPC*%
G36*
X00503169Y0043826D02*
X00500131D01*
X00497196Y00437473D01*
X00494564Y00435954D01*
X00492416Y00433806D01*
X00490896Y00431174D01*
X00490202Y00428583D01*
X00487698D01*
X00487004Y00431174D01*
X00485484Y00433806D01*
X00483336Y00435954D01*
X00480704Y00437473D01*
X00477769Y0043826D01*
X00474731D01*
X00471796Y00437473D01*
X00469164Y00435954D01*
X00467016Y00433806D01*
X00465496Y00431174D01*
X00464802Y00428583D01*
X00462298D01*
X00461604Y00431174D01*
X00460084Y00433806D01*
X00457936Y00435954D01*
X00455304Y00437473D01*
X00452369Y0043826D01*
X00449331D01*
X00446396Y00437473D01*
X00443764Y00435954D01*
X00441616Y00433806D01*
X00440097Y00431174D01*
X00439402Y00428583D01*
X00436898D01*
X00436203Y00431174D01*
X00434684Y00433806D01*
X00432536Y00435954D01*
X00429904Y00437473D01*
X00426969Y0043826D01*
X00423931D01*
X00420996Y00437473D01*
X00418364Y00435954D01*
X00416216Y00433806D01*
X00414697Y00431174D01*
X00414002Y00428583D01*
X00411498D01*
X00410803Y00431174D01*
X00409284Y00433806D01*
X00407136Y00435954D01*
X00404504Y00437473D01*
X00401569Y0043826D01*
X00398531D01*
X00395596Y00437473D01*
X00392964Y00435954D01*
X00390816Y00433806D01*
X00389296Y00431174D01*
X00388602Y00428583D01*
X00386098D01*
X00385404Y00431174D01*
X00383884Y00433806D01*
X00381736Y00435954D01*
X00379104Y00437473D01*
X00376169Y0043826D01*
X00373131D01*
X00370196Y00437473D01*
X00367564Y00435954D01*
X00365416Y00433806D01*
X00363896Y00431174D01*
X00363202Y00428583D01*
X00360698D01*
X00360004Y00431174D01*
X00358484Y00433806D01*
X00356336Y00435954D01*
X00353704Y00437473D01*
X00350769Y0043826D01*
X00347731D01*
X00344796Y00437473D01*
X00342164Y00435954D01*
X00340016Y00433806D01*
X00338497Y00431174D01*
X00337802Y00428583D01*
X00335298D01*
X00334604Y00431174D01*
X00333084Y00433806D01*
X00330936Y00435954D01*
X00328304Y00437473D01*
X00325369Y0043826D01*
X00322331D01*
X00319396Y00437473D01*
X00316764Y00435954D01*
X00314616Y00433806D01*
X00313097Y00431174D01*
X00312402Y00428583D01*
X00309898D01*
X00309203Y00431174D01*
X00307684Y00433806D01*
X00305536Y00435954D01*
X00302904Y00437473D01*
X00299969Y0043826D01*
X00296931D01*
X00293996Y00437473D01*
X00291364Y00435954D01*
X00289216Y00433806D01*
X00287696Y00431174D01*
X00287002Y00428583D01*
X00284498D01*
X00283804Y00431174D01*
X00282284Y00433806D01*
X00280136Y00435954D01*
X00277504Y00437473D01*
X00274569Y0043826D01*
X00271531D01*
X00268596Y00437473D01*
X00265964Y00435954D01*
X00263816Y00433806D01*
X00262297Y00431174D01*
X00261602Y00428583D01*
X00259098D01*
X00258403Y00431174D01*
X00256884Y00433806D01*
X00254736Y00435954D01*
X00252104Y00437473D01*
X00249169Y0043826D01*
X00246131D01*
X00243196Y00437473D01*
X00240564Y00435954D01*
X00238416Y00433806D01*
X00236896Y00431174D01*
X00236202Y00428583D01*
X00233698D01*
X00233004Y00431174D01*
X00231484Y00433806D01*
X00229336Y00435954D01*
X00226704Y00437473D01*
X00223769Y0043826D01*
X00220731D01*
X00217796Y00437473D01*
X00215164Y00435954D01*
X00213016Y00433806D01*
X00211497Y00431174D01*
X00210802Y00428583D01*
X00208298D01*
X00207603Y00431174D01*
X00206084Y00433806D01*
X00203936Y00435954D01*
X00201304Y00437473D01*
X00198369Y0043826D01*
X00195331D01*
X00192396Y00437473D01*
X00189764Y00435954D01*
X00187616Y00433806D01*
X00186096Y00431174D01*
X0018531Y00428239D01*
Y00425201D01*
X00186096Y00422266D01*
X00187616Y00419634D01*
X00189764Y00417486D01*
X00192396Y00415966D01*
X00195331Y0041518D01*
X00198369D01*
X00201304Y00415966D01*
X00203936Y00417486D01*
X00206084Y00419634D01*
X00207603Y00422266D01*
X00208298Y00424857D01*
X00210802D01*
X00211497Y00422266D01*
X00213016Y00419634D01*
X00215164Y00417486D01*
X00217796Y00415966D01*
X00220731Y0041518D01*
X00223769D01*
X00226704Y00415966D01*
X00229336Y00417486D01*
X00231484Y00419634D01*
X00233004Y00422266D01*
X00233698Y00424857D01*
X00236202D01*
X00236896Y00422266D01*
X00238416Y00419634D01*
X00240564Y00417486D01*
X00243196Y00415966D01*
X00246131Y0041518D01*
X00249169D01*
X00252104Y00415966D01*
X00254736Y00417486D01*
X00256884Y00419634D01*
X00258403Y00422266D01*
X00259098Y00424857D01*
X00261602D01*
X00262297Y00422266D01*
X00263816Y00419634D01*
X00265964Y00417486D01*
X00268596Y00415966D01*
X00271531Y0041518D01*
X00274569D01*
X00277504Y00415966D01*
X00280136Y00417486D01*
X00282284Y00419634D01*
X00283804Y00422266D01*
X00284498Y00424857D01*
X00287002D01*
X00287696Y00422266D01*
X00289216Y00419634D01*
X00291364Y00417486D01*
X00293996Y00415966D01*
X00296931Y0041518D01*
X00299969D01*
X00302904Y00415966D01*
X00305536Y00417486D01*
X00307684Y00419634D01*
X00309203Y00422266D01*
X00309898Y00424857D01*
X00312402D01*
X00313097Y00422266D01*
X00314616Y00419634D01*
X00316764Y00417486D01*
X00319396Y00415966D01*
X00322331Y0041518D01*
X00325369D01*
X00328304Y00415966D01*
X00330936Y00417486D01*
X00333084Y00419634D01*
X00334604Y00422266D01*
X00335298Y00424857D01*
X00337802D01*
X00338497Y00422266D01*
X00340016Y00419634D01*
X00342164Y00417486D01*
X00344796Y00415966D01*
X00347731Y0041518D01*
X00350769D01*
X00353704Y00415966D01*
X00356336Y00417486D01*
X00358484Y00419634D01*
X00360004Y00422266D01*
X00360698Y00424857D01*
X00363202D01*
X00363896Y00422266D01*
X00365416Y00419634D01*
X00367564Y00417486D01*
X00370196Y00415966D01*
X00373131Y0041518D01*
X00376169D01*
X00379104Y00415966D01*
X00381736Y00417486D01*
X00383884Y00419634D01*
X00385404Y00422266D01*
X00386098Y00424857D01*
X00388602D01*
X00389296Y00422266D01*
X00390816Y00419634D01*
X00392964Y00417486D01*
X00395596Y00415966D01*
X00398531Y0041518D01*
X00401569D01*
X00404504Y00415966D01*
X00407136Y00417486D01*
X00409284Y00419634D01*
X00410803Y00422266D01*
X00411498Y00424857D01*
X00414002D01*
X00414697Y00422266D01*
X00416216Y00419634D01*
X00418364Y00417486D01*
X00420996Y00415966D01*
X00423931Y0041518D01*
X00426969D01*
X00429904Y00415966D01*
X00432536Y00417486D01*
X00434684Y00419634D01*
X00436203Y00422266D01*
X00436898Y00424857D01*
X00439402D01*
X00440097Y00422266D01*
X00441616Y00419634D01*
X00443764Y00417486D01*
X00446396Y00415966D01*
X00449331Y0041518D01*
X00452369D01*
X00455304Y00415966D01*
X00457936Y00417486D01*
X00460084Y00419634D01*
X00461604Y00422266D01*
X00462298Y00424857D01*
X00464802D01*
X00465496Y00422266D01*
X00467016Y00419634D01*
X00469164Y00417486D01*
X00471796Y00415966D01*
X00474731Y0041518D01*
X00477769D01*
X00480704Y00415966D01*
X00483336Y00417486D01*
X00485484Y00419634D01*
X00487004Y00422266D01*
X00487698Y00424857D01*
X00490202D01*
X00490896Y00422266D01*
X00492416Y00419634D01*
X00494564Y00417486D01*
X00497196Y00415966D01*
X00500131Y0041518D01*
X00503169D01*
X00506104Y00415966D01*
X00508736Y00417486D01*
X00510884Y00419634D01*
X00512403Y00422266D01*
X0051319Y00425201D01*
Y00428239D01*
X00512403Y00431174D01*
X00510884Y00433806D01*
X00508736Y00435954D01*
X00506104Y00437473D01*
X00503169Y0043826D01*
D02*
G37*
G36*
X00147569D02*
X00144531D01*
X00141596Y00437473D01*
X00138964Y00435954D01*
X00136816Y00433806D01*
X00135296Y00431174D01*
X0013451Y00428239D01*
Y00425201D01*
X00135296Y00422266D01*
X00136816Y00419634D01*
X00138964Y00417486D01*
X00141596Y00415966D01*
X00144531Y0041518D01*
X00147569D01*
X00150504Y00415966D01*
X00153136Y00417486D01*
X00155284Y00419634D01*
X00156804Y00422266D01*
X0015759Y00425201D01*
Y00428239D01*
X00156804Y00431174D01*
X00155284Y00433806D01*
X00153136Y00435954D01*
X00150504Y00437473D01*
X00147569Y0043826D01*
D02*
G37*
G36*
X00039606Y0039944D02*
X00036594D01*
X0003364Y00398852D01*
X00030858Y003977D01*
X00028353Y00396026D01*
X00026223Y00393897D01*
X0002455Y00391393D01*
X00023398Y0038861D01*
X0002281Y00385656D01*
Y00382644D01*
X00023398Y0037969D01*
X0002455Y00376908D01*
X00026223Y00374403D01*
X00028353Y00372273D01*
X00030858Y003706D01*
X0003364Y00369448D01*
X00036594Y0036886D01*
X00039606D01*
X0004256Y00369448D01*
X00045342Y003706D01*
X00047847Y00372273D01*
X00049977Y00374403D01*
X0005165Y00376908D01*
X00052802Y0037969D01*
X0005339Y00382644D01*
Y00385656D01*
X00052802Y0038861D01*
X0005165Y00391393D01*
X00049977Y00393897D01*
X00047847Y00396026D01*
X00045342Y003977D01*
X0004256Y00398852D01*
X00039606Y0039944D01*
D02*
G37*
G36*
Y0034944D02*
X00036594D01*
X0003364Y00348852D01*
X00030858Y003477D01*
X00028353Y00346026D01*
X00026223Y00343897D01*
X0002455Y00341393D01*
X00023398Y0033861D01*
X0002281Y00335656D01*
Y00332644D01*
X00023398Y0032969D01*
X0002455Y00326908D01*
X00026223Y00324403D01*
X00028353Y00322273D01*
X00030858Y003206D01*
X0003364Y00319448D01*
X00036594Y0031886D01*
X00039606D01*
X0004256Y00319448D01*
X00045342Y003206D01*
X00047847Y00322273D01*
X00049977Y00324403D01*
X0005165Y00326908D01*
X00052802Y0032969D01*
X0005339Y00332644D01*
Y00335656D01*
X00052802Y0033861D01*
X0005165Y00341393D01*
X00049977Y00343897D01*
X00047847Y00346026D01*
X00045342Y003477D01*
X0004256Y00348852D01*
X00039606Y0034944D01*
D02*
G37*
G36*
X0046736Y00307415D02*
X001143D01*
X00112813Y00307119D01*
X00111553Y00306277D01*
X00093311Y00288035D01*
X00058308D01*
X00058117Y00288053D01*
X00057623Y00288185D01*
X00056961Y00288457D01*
X00056153Y00288885D01*
X00055221Y00289477D01*
X0005422Y00290203D01*
X00050436Y00293515D01*
X00049031Y00294912D01*
X00048825Y00295049D01*
X00047847Y00296026D01*
X00045342Y002977D01*
X0004256Y00298852D01*
X00039606Y0029944D01*
X00036594D01*
X0003364Y00298852D01*
X00030858Y002977D01*
X00028353Y00296026D01*
X00026223Y00293897D01*
X0002455Y00291392D01*
X00023398Y0028861D01*
X0002281Y00285656D01*
Y00282644D01*
X00023398Y0027969D01*
X0002455Y00276908D01*
X00026223Y00274403D01*
X00028353Y00272274D01*
X00030858Y002706D01*
X0003364Y00269448D01*
X00036594Y0026886D01*
X00039606D01*
X0004256Y00269448D01*
X00045342Y002706D01*
X00047847Y00272274D01*
X00048825Y00273251D01*
X00049031Y00273389D01*
X00050467Y00274816D01*
X00051776Y00276044D01*
X000542Y00278083D01*
X00055221Y00278823D01*
X00056153Y00279415D01*
X0005696Y00279843D01*
X00057623Y00280115D01*
X00058117Y00280247D01*
X00058308Y00280265D01*
X0009492D01*
X00096407Y00280561D01*
X00097667Y00281403D01*
X00115909Y00299645D01*
X00465751D01*
X00472365Y00293031D01*
Y00288434D01*
X00472364Y00288421D01*
X00472292Y00288109D01*
X00472139Y0028769D01*
X0047189Y00287174D01*
X00471536Y00286574D01*
X00471074Y00285899D01*
X00470519Y0028518D01*
X00469015Y00283485D01*
X00468109Y00282568D01*
X00467973Y00282363D01*
X00467016Y00281406D01*
X00465496Y00278774D01*
X00464802Y00276183D01*
X00462298D01*
X00461604Y00278774D01*
X00460084Y00281406D01*
X00457936Y00283554D01*
X00455304Y00285074D01*
X00452369Y0028586D01*
X00449331D01*
X00446396Y00285074D01*
X00443764Y00283554D01*
X00441616Y00281406D01*
X00440097Y00278774D01*
X00439402Y00276183D01*
X00436898D01*
X00436203Y00278774D01*
X00434684Y00281406D01*
X00432536Y00283554D01*
X00429904Y00285074D01*
X00426969Y0028586D01*
X00423931D01*
X00420996Y00285074D01*
X00418364Y00283554D01*
X00416216Y00281406D01*
X00414697Y00278774D01*
X00414002Y00276183D01*
X00411498D01*
X00410803Y00278774D01*
X00409284Y00281406D01*
X00407136Y00283554D01*
X00404504Y00285074D01*
X00401569Y0028586D01*
X00398531D01*
X00395596Y00285074D01*
X00392964Y00283554D01*
X00390816Y00281406D01*
X00389296Y00278774D01*
X00388602Y00276183D01*
X00386098D01*
X00385404Y00278774D01*
X00383884Y00281406D01*
X00381736Y00283554D01*
X00379104Y00285074D01*
X00376169Y0028586D01*
X00373131D01*
X00370196Y00285074D01*
X00367564Y00283554D01*
X00365416Y00281406D01*
X00363896Y00278774D01*
X00363202Y00276183D01*
X00360698D01*
X00360004Y00278774D01*
X00358484Y00281406D01*
X00356336Y00283554D01*
X00353704Y00285074D01*
X00350769Y0028586D01*
X00347731D01*
X00344796Y00285074D01*
X00342164Y00283554D01*
X00340016Y00281406D01*
X00338497Y00278774D01*
X00337802Y00276183D01*
X00335298D01*
X00334604Y00278774D01*
X00333084Y00281406D01*
X00330936Y00283554D01*
X00328304Y00285074D01*
X00325369Y0028586D01*
X00322331D01*
X00319396Y00285074D01*
X00316764Y00283554D01*
X00314616Y00281406D01*
X00313097Y00278774D01*
X00312402Y00276183D01*
X00309898D01*
X00309203Y00278774D01*
X00307684Y00281406D01*
X00305536Y00283554D01*
X00302904Y00285074D01*
X00299969Y0028586D01*
X00296931D01*
X00293996Y00285074D01*
X00291364Y00283554D01*
X00289216Y00281406D01*
X00287696Y00278774D01*
X00287002Y00276183D01*
X00284498D01*
X00283804Y00278774D01*
X00282284Y00281406D01*
X00280136Y00283554D01*
X00277504Y00285074D01*
X00274569Y0028586D01*
X00271531D01*
X00268596Y00285074D01*
X00265964Y00283554D01*
X00263816Y00281406D01*
X00262297Y00278774D01*
X00261602Y00276183D01*
X00259098D01*
X00258403Y00278774D01*
X00256884Y00281406D01*
X00254736Y00283554D01*
X00252104Y00285074D01*
X00249169Y0028586D01*
X00246131D01*
X00243196Y00285074D01*
X00240564Y00283554D01*
X00238416Y00281406D01*
X00236896Y00278774D01*
X0023611Y00275839D01*
Y00272801D01*
X00236896Y00269866D01*
X00238416Y00267234D01*
X00239373Y00266277D01*
X00239509Y00266072D01*
X00240415Y00265155D01*
X00241919Y00263461D01*
X00242474Y00262741D01*
X00242936Y00262066D01*
X0024329Y00261466D01*
X00243539Y0026095D01*
X00243692Y00260531D01*
X00243764Y00260219D01*
X00243765Y00260206D01*
Y00256879D01*
X00240961Y00254075D01*
X0014732D01*
X00145833Y00253779D01*
X00144573Y00252937D01*
X00139493Y00247857D01*
X00138651Y00246597D01*
X00138355Y0024511D01*
Y00239265D01*
X00138306Y00239034D01*
X00138192Y00238701D01*
X00138005Y00238291D01*
X00137737Y00237813D01*
X00137381Y00237275D01*
X00136955Y00236708D01*
X00135763Y00235344D01*
X00135041Y00234611D01*
X00134907Y00234407D01*
X00134086Y00233587D01*
X00132744Y00231263D01*
X0013205Y00228672D01*
Y00225988D01*
X00132744Y00223397D01*
X00134086Y00221073D01*
X00135983Y00219176D01*
X00138307Y00217834D01*
X00140898Y0021714D01*
X00143582D01*
X00146173Y00217834D01*
X00148497Y00219176D01*
X00150394Y00221073D01*
X00151736Y00223397D01*
X0015243Y00225988D01*
Y00228672D01*
X00151736Y00231263D01*
X00150394Y00233587D01*
X00149573Y00234407D01*
X00149439Y00234611D01*
X00148717Y00235344D01*
X00147524Y00236708D01*
X00147099Y00237275D01*
X00146743Y00237813D01*
X00146474Y00238291D01*
X00146288Y00238701D01*
X00146174Y00239034D01*
X00146125Y00239265D01*
Y00243501D01*
X00148929Y00246305D01*
X0024257D01*
X00244057Y00246601D01*
X00245317Y00247443D01*
X00250397Y00252523D01*
X00251239Y00253783D01*
X00251535Y0025527D01*
Y00260206D01*
X00251536Y00260219D01*
X00251608Y00260531D01*
X00251761Y0026095D01*
X0025201Y00261466D01*
X00252364Y00262066D01*
X00252826Y00262741D01*
X00253381Y0026346D01*
X00254885Y00265155D01*
X00255791Y00266072D01*
X00255927Y00266277D01*
X00256884Y00267234D01*
X00258403Y00269866D01*
X00259098Y00272457D01*
X00261602D01*
X00262297Y00269866D01*
X00263816Y00267234D01*
X00264773Y00266277D01*
X00264909Y00266072D01*
X00265815Y00265155D01*
X00267319Y00263461D01*
X00267874Y00262741D01*
X00268336Y00262066D01*
X0026869Y00261466D01*
X00268939Y0026095D01*
X00269092Y00260531D01*
X00269164Y00260219D01*
X00269165Y00260206D01*
Y0025273D01*
X00269461Y00251243D01*
X00270303Y00249983D01*
X00275383Y00244903D01*
X00276643Y00244061D01*
X0027813Y00243765D01*
X00345101D01*
X00347905Y00240961D01*
Y00239265D01*
X00347856Y00239034D01*
X00347742Y00238701D01*
X00347555Y00238291D01*
X00347287Y00237813D01*
X00346931Y00237275D01*
X00346506Y00236708D01*
X00345313Y00235344D01*
X00344591Y00234611D01*
X00344457Y00234407D01*
X00343636Y00233587D01*
X00342294Y00231263D01*
X003416Y00228672D01*
Y00225988D01*
X00342294Y00223397D01*
X00343636Y00221073D01*
X00345533Y00219176D01*
X00347857Y00217834D01*
X00350448Y0021714D01*
X00353132D01*
X00355723Y00217834D01*
X00358047Y00219176D01*
X00359944Y00221073D01*
X00361286Y00223397D01*
X0036198Y00225988D01*
Y00228672D01*
X00361286Y00231263D01*
X00359944Y00233587D01*
X00359123Y00234407D01*
X00358989Y00234611D01*
X00358267Y00235344D01*
X00357075Y00236708D01*
X00356649Y00237275D01*
X00356293Y00237813D01*
X00356024Y00238291D01*
X00355838Y00238701D01*
X00355724Y00239034D01*
X00355675Y00239265D01*
Y0024257D01*
X00355379Y00244057D01*
X00354537Y00245317D01*
X00349457Y00250397D01*
X00348197Y00251239D01*
X0034671Y00251535D01*
X00279739D01*
X00276935Y00254339D01*
Y00260206D01*
X00276936Y00260219D01*
X00277008Y00260531D01*
X00277161Y0026095D01*
X0027741Y00261466D01*
X00277764Y00262066D01*
X00278226Y00262741D01*
X00278781Y0026346D01*
X00280285Y00265155D01*
X00281191Y00266072D01*
X00281327Y00266277D01*
X00282284Y00267234D01*
X00283804Y00269866D01*
X00284498Y00272457D01*
X00287002D01*
X00287696Y00269866D01*
X00289216Y00267234D01*
X00291364Y00265086D01*
X00293996Y00263566D01*
X00296931Y0026278D01*
X00299969D01*
X00302904Y00263566D01*
X00305536Y00265086D01*
X00307684Y00267234D01*
X00309203Y00269866D01*
X00309898Y00272457D01*
X00312402D01*
X00313097Y00269866D01*
X00314616Y00267234D01*
X00316764Y00265086D01*
X00319396Y00263566D01*
X00322331Y0026278D01*
X00325369D01*
X00328304Y00263566D01*
X00330936Y00265086D01*
X00333084Y00267234D01*
X00334604Y00269866D01*
X00335298Y00272457D01*
X00337802D01*
X00338497Y00269866D01*
X00340016Y00267234D01*
X00342164Y00265086D01*
X00344796Y00263566D01*
X00347731Y0026278D01*
X00350769D01*
X00353704Y00263566D01*
X00356336Y00265086D01*
X00358484Y00267234D01*
X00360004Y00269866D01*
X00360698Y00272457D01*
X00363202D01*
X00363896Y00269866D01*
X00365416Y00267234D01*
X00367564Y00265086D01*
X00370196Y00263566D01*
X00373131Y0026278D01*
X00376169D01*
X00379104Y00263566D01*
X00381736Y00265086D01*
X00383884Y00267234D01*
X00385404Y00269866D01*
X00386098Y00272457D01*
X00388602D01*
X00389296Y00269866D01*
X00390816Y00267234D01*
X00392964Y00265086D01*
X00395596Y00263566D01*
X00396165Y00263414D01*
Y00254D01*
X00396461Y00252513D01*
X00397303Y00251253D01*
X00401113Y00247443D01*
X00402373Y00246601D01*
X0040386Y00246305D01*
X00498771D01*
X00500305Y00244771D01*
Y0023752D01*
X00494D01*
Y0021714D01*
X0051438D01*
Y0023752D01*
X00508075D01*
Y0024638D01*
X00507779Y00247867D01*
X00506937Y00249127D01*
X00503127Y00252937D01*
X00501867Y00253779D01*
X0050038Y00254075D01*
X00405469D01*
X00403935Y00255609D01*
Y00263414D01*
X00404504Y00263566D01*
X00407136Y00265086D01*
X00409284Y00267234D01*
X00410803Y00269866D01*
X00411498Y00272457D01*
X00414002D01*
X00414697Y00269866D01*
X00416216Y00267234D01*
X00418364Y00265086D01*
X00420996Y00263566D01*
X00423931Y0026278D01*
X00426969D01*
X00429904Y00263566D01*
X00432536Y00265086D01*
X00434684Y00267234D01*
X00436203Y00269866D01*
X00436898Y00272457D01*
X00439402D01*
X00440097Y00269866D01*
X00441616Y00267234D01*
X00443764Y00265086D01*
X00446396Y00263566D01*
X00449331Y0026278D01*
X00452369D01*
X00455304Y00263566D01*
X00457936Y00265086D01*
X00460084Y00267234D01*
X00461604Y00269866D01*
X00462298Y00272457D01*
X00464802D01*
X00465496Y00269866D01*
X00467016Y00267234D01*
X00469164Y00265086D01*
X00471796Y00263566D01*
X00474731Y0026278D01*
X00477769D01*
X00480704Y00263566D01*
X00483336Y00265086D01*
X00485484Y00267234D01*
X00487004Y00269866D01*
X00487698Y00272457D01*
X00490202D01*
X00490896Y00269866D01*
X00492416Y00267234D01*
X00494564Y00265086D01*
X00497196Y00263566D01*
X00500131Y0026278D01*
X00503169D01*
X00506104Y00263566D01*
X00508736Y00265086D01*
X00510884Y00267234D01*
X00512403Y00269866D01*
X0051319Y00272801D01*
Y00275839D01*
X00512403Y00278774D01*
X00510884Y00281406D01*
X00508736Y00283554D01*
X00506104Y00285074D01*
X00503169Y0028586D01*
X00500131D01*
X00497196Y00285074D01*
X00494564Y00283554D01*
X00492416Y00281406D01*
X00490896Y00278774D01*
X00490202Y00276183D01*
X00487698D01*
X00487004Y00278774D01*
X00485484Y00281406D01*
X00484527Y00282363D01*
X00484391Y00282568D01*
X00483485Y00283485D01*
X00481981Y0028518D01*
X00481426Y00285899D01*
X00480964Y00286574D01*
X0048061Y00287174D01*
X00480361Y0028769D01*
X00480208Y00288109D01*
X00480136Y00288421D01*
X00480135Y00288434D01*
Y0029464D01*
X00479839Y00296127D01*
X00478997Y00297387D01*
X00470107Y00306277D01*
X00468847Y00307119D01*
X0046736Y00307415D01*
D02*
G37*
G36*
X00198369Y0028586D02*
X00195331D01*
X00192396Y00285074D01*
X00189764Y00283554D01*
X00187616Y00281406D01*
X00186096Y00278774D01*
X00185402Y00276183D01*
X00182898D01*
X00182204Y00278774D01*
X00180684Y00281406D01*
X00178536Y00283554D01*
X00175904Y00285074D01*
X00172969Y0028586D01*
X00169931D01*
X00166996Y00285074D01*
X00164364Y00283554D01*
X00162216Y00281406D01*
X00160697Y00278774D01*
X0016013Y0027666D01*
X0015759Y00276995D01*
Y0028586D01*
X0013451D01*
Y0026278D01*
X0015759D01*
Y00271645D01*
X0016013Y0027198D01*
X00160697Y00269866D01*
X00162216Y00267234D01*
X00164364Y00265086D01*
X00166996Y00263566D01*
X00169931Y0026278D01*
X00172969D01*
X00175904Y00263566D01*
X00178536Y00265086D01*
X00180684Y00267234D01*
X00182204Y00269866D01*
X00182898Y00272457D01*
X00185402D01*
X00186096Y00269866D01*
X00187616Y00267234D01*
X00189764Y00265086D01*
X00192396Y00263566D01*
X00195331Y0026278D01*
X00198369D01*
X00201304Y00263566D01*
X00203936Y00265086D01*
X00206084Y00267234D01*
X00207603Y00269866D01*
X0020839Y00272801D01*
Y00275839D01*
X00207603Y00278774D01*
X00206084Y00281406D01*
X00203936Y00283554D01*
X00201304Y00285074D01*
X00198369Y0028586D01*
D02*
G37*
G36*
X00403932Y0023752D02*
X00401248D01*
X00398657Y00236826D01*
X00396333Y00235484D01*
X00395513Y00234663D01*
X00395309Y00234529D01*
X00394576Y00233807D01*
X00393212Y00232614D01*
X00392645Y00232189D01*
X00392107Y00231833D01*
X00391629Y00231564D01*
X00391219Y00231378D01*
X00390886Y00231264D01*
X00390655Y00231215D01*
X00389125D01*
X00388894Y00231264D01*
X00388561Y00231378D01*
X00388151Y00231565D01*
X00387673Y00231833D01*
X00387135Y00232189D01*
X00386568Y00232614D01*
X00385204Y00233807D01*
X00384471Y00234529D01*
X00384267Y00234663D01*
X00383447Y00235484D01*
X00381123Y00236826D01*
X00378532Y0023752D01*
X00375848D01*
X00373257Y00236826D01*
X00370933Y00235484D01*
X00369036Y00233587D01*
X00367694Y00231263D01*
X00367Y00228672D01*
Y00225988D01*
X00367694Y00223397D01*
X00369036Y00221073D01*
X00370933Y00219176D01*
X00373257Y00217834D01*
X00375848Y0021714D01*
X00378532D01*
X00381123Y00217834D01*
X00383447Y00219176D01*
X00384267Y00219997D01*
X00384471Y00220131D01*
X00385204Y00220853D01*
X00386568Y00222045D01*
X00387135Y00222471D01*
X00387673Y00222827D01*
X00388151Y00223096D01*
X0038856Y00223282D01*
X00388894Y00223396D01*
X00389125Y00223445D01*
X00390655D01*
X00390886Y00223396D01*
X00391219Y00223282D01*
X00391629Y00223095D01*
X00392107Y00222827D01*
X00392645Y00222471D01*
X00393212Y00222045D01*
X00394576Y00220853D01*
X00395309Y00220131D01*
X00395513Y00219997D01*
X00396333Y00219176D01*
X00398657Y00217834D01*
X00401248Y0021714D01*
X00403932D01*
X00406523Y00217834D01*
X00408847Y00219176D01*
X00410744Y00221073D01*
X00412086Y00223397D01*
X0041278Y00225988D01*
Y00228672D01*
X00412086Y00231263D01*
X00410744Y00233587D01*
X00408847Y00235484D01*
X00406523Y00236826D01*
X00403932Y0023752D01*
D02*
G37*
G36*
X00194382D02*
X00191698D01*
X00189107Y00236826D01*
X00186783Y00235484D01*
X00185963Y00234663D01*
X00185759Y00234529D01*
X00185026Y00233807D01*
X00183662Y00232614D01*
X00183095Y00232189D01*
X00182557Y00231833D01*
X00182079Y00231564D01*
X0018167Y00231378D01*
X00181336Y00231264D01*
X00181105Y00231215D01*
X00179575D01*
X00179344Y00231264D01*
X00179011Y00231378D01*
X00178601Y00231565D01*
X00178123Y00231833D01*
X00177585Y00232189D01*
X00177018Y00232614D01*
X00175654Y00233807D01*
X00174921Y00234529D01*
X00174717Y00234663D01*
X00173897Y00235484D01*
X00171573Y00236826D01*
X00168982Y0023752D01*
X00166298D01*
X00163707Y00236826D01*
X00161383Y00235484D01*
X00159486Y00233587D01*
X00158144Y00231263D01*
X0015745Y00228672D01*
Y00225988D01*
X00158144Y00223397D01*
X00159486Y00221073D01*
X00161383Y00219176D01*
X00163707Y00217834D01*
X00166298Y0021714D01*
X00168982D01*
X00171573Y00217834D01*
X00173897Y00219176D01*
X00174717Y00219997D01*
X00174921Y00220131D01*
X00175654Y00220853D01*
X00177018Y00222045D01*
X00177585Y00222471D01*
X00178123Y00222827D01*
X00178601Y00223096D01*
X00179011Y00223282D01*
X00179344Y00223396D01*
X00179575Y00223445D01*
X00181105D01*
X00181336Y00223396D01*
X00181669Y00223282D01*
X00182079Y00223095D01*
X00182557Y00222827D01*
X00183095Y00222471D01*
X00183662Y00222045D01*
X00185026Y00220853D01*
X00185759Y00220131D01*
X00185963Y00219997D01*
X00186783Y00219176D01*
X00189107Y00217834D01*
X00191698Y0021714D01*
X00194382D01*
X00196973Y00217834D01*
X00199297Y00219176D01*
X00201194Y00221073D01*
X00202536Y00223397D01*
X0020323Y00225988D01*
Y00228672D01*
X00202536Y00231263D01*
X00201194Y00233587D01*
X00199297Y00235484D01*
X00196973Y00236826D01*
X00194382Y0023752D01*
D02*
G37*
G36*
X00327732D02*
X00325048D01*
X00322457Y00236826D01*
X00320133Y00235484D01*
X00318236Y00233587D01*
X00316894Y00231263D01*
X003162Y00228672D01*
Y00225988D01*
X00316894Y00223397D01*
X00318236Y00221073D01*
X00320133Y00219176D01*
X00322457Y00217834D01*
X00325048Y0021714D01*
X00327732D01*
X00330323Y00217834D01*
X00332647Y00219176D01*
X00334544Y00221073D01*
X00335886Y00223397D01*
X0033658Y00225988D01*
Y00228672D01*
X00335886Y00231263D01*
X00334544Y00233587D01*
X00332647Y00235484D01*
X00330323Y00236826D01*
X00327732Y0023752D01*
D02*
G37*
G36*
X0030483D02*
X0028445D01*
Y0021714D01*
X0030483D01*
Y0023752D01*
D02*
G37*
G36*
X00118182D02*
X00115498D01*
X00112907Y00236826D01*
X00110583Y00235484D01*
X00108686Y00233587D01*
X00107344Y00231263D01*
X0010665Y00228672D01*
Y00225988D01*
X00107344Y00223397D01*
X00108686Y00221073D01*
X00110583Y00219176D01*
X00112907Y00217834D01*
X00115498Y0021714D01*
X00118182D01*
X00120773Y00217834D01*
X00123097Y00219176D01*
X00124994Y00221073D01*
X00126336Y00223397D01*
X0012703Y00225988D01*
Y00228672D01*
X00126336Y00231263D01*
X00124994Y00233587D01*
X00123097Y00235484D01*
X00120773Y00236826D01*
X00118182Y0023752D01*
D02*
G37*
G36*
X00505426Y0020116D02*
X00502954D01*
X00500566Y0020052D01*
X00498424Y00199284D01*
X00496676Y00197536D01*
X0049544Y00195394D01*
X004948Y00193006D01*
Y00190534D01*
X0049544Y00188146D01*
X00496676Y00186004D01*
X00498424Y00184256D01*
X00500566Y0018302D01*
X00502954Y0018238D01*
X00505426D01*
X00507814Y0018302D01*
X00509956Y00184256D01*
X00511704Y00186004D01*
X0051294Y00188146D01*
X0051358Y00190534D01*
Y00193006D01*
X0051294Y00195394D01*
X00511704Y00197536D01*
X00509956Y00199284D01*
X00507814Y0020052D01*
X00505426Y0020116D01*
D02*
G37*
G36*
X00480132Y0023752D02*
X00477448D01*
X00474857Y00236826D01*
X00472533Y00235484D01*
X00470636Y00233587D01*
X00469294Y00231263D01*
X004686Y00228672D01*
Y00225988D01*
X00469294Y00223397D01*
X00470636Y00221073D01*
X00471457Y00220253D01*
X00471591Y00220049D01*
X00472313Y00219316D01*
X00473506Y00217952D01*
X00473931Y00217385D01*
X00474287Y00216847D01*
X00474556Y00216369D01*
X00474742Y00215959D01*
X00474856Y00215626D01*
X00474905Y00215395D01*
Y0020116D01*
X004694D01*
Y0018238D01*
X0048818D01*
Y0020116D01*
X00482675D01*
Y00215395D01*
X00482724Y00215626D01*
X00482838Y00215959D01*
X00483025Y00216369D01*
X00483293Y00216847D01*
X00483649Y00217385D01*
X00484075Y00217952D01*
X00485267Y00219316D01*
X00485989Y00220049D01*
X00486123Y00220253D01*
X00486944Y00221073D01*
X00488286Y00223397D01*
X0048898Y00225988D01*
Y00228672D01*
X00488286Y00231263D01*
X00486944Y00233587D01*
X00485047Y00235484D01*
X00482723Y00236826D01*
X00480132Y0023752D01*
D02*
G37*
G36*
X00295876Y0020116D02*
X00293404D01*
X00291016Y0020052D01*
X00288874Y00199284D01*
X00287126Y00197536D01*
X0028589Y00195394D01*
X0028525Y00193006D01*
Y00190534D01*
X0028589Y00188146D01*
X00287126Y00186004D01*
X00288874Y00184256D01*
X00291016Y0018302D01*
X00293404Y0018238D01*
X00295876D01*
X00298264Y0018302D01*
X00300406Y00184256D01*
X00302154Y00186004D01*
X0030339Y00188146D01*
X0030403Y00190534D01*
Y00193006D01*
X0030339Y00195394D01*
X00302154Y00197536D01*
X00300406Y00199284D01*
X00298264Y0020052D01*
X00295876Y0020116D01*
D02*
G37*
G36*
X00270582Y0023752D02*
X00267898D01*
X00265307Y00236826D01*
X00262983Y00235484D01*
X00261086Y00233587D01*
X00259744Y00231263D01*
X0025905Y00228672D01*
Y00225988D01*
X00259744Y00223397D01*
X00261086Y00221073D01*
X00261907Y00220253D01*
X00262041Y00220049D01*
X00262763Y00219316D01*
X00263955Y00217952D01*
X00264381Y00217385D01*
X00264737Y00216847D01*
X00265006Y00216369D01*
X00265192Y00215959D01*
X00265306Y00215626D01*
X00265355Y00215395D01*
Y0020116D01*
X0025985D01*
Y0018238D01*
X0027863D01*
Y0020116D01*
X00273125D01*
Y00215395D01*
X00273174Y00215626D01*
X00273288Y00215959D01*
X00273475Y00216369D01*
X00273743Y00216847D01*
X00274099Y00217385D01*
X00274524Y00217952D01*
X00275717Y00219316D01*
X00276439Y00220049D01*
X00276573Y00220253D01*
X00277394Y00221073D01*
X00278736Y00223397D01*
X0027943Y00225988D01*
Y00228672D01*
X00278736Y00231263D01*
X00277394Y00233587D01*
X00275497Y00235484D01*
X00273173Y00236826D01*
X00270582Y0023752D01*
D02*
G37*
G36*
X00429332D02*
X00426648D01*
X00424057Y00236826D01*
X00421733Y00235484D01*
X00419836Y00233587D01*
X00418494Y00231263D01*
X004178Y00228672D01*
Y00225988D01*
X00418494Y00223397D01*
X00419836Y00221073D01*
X00420657Y00220253D01*
X00420791Y00220049D01*
X00421513Y00219316D01*
X00422705Y00217952D01*
X00423131Y00217385D01*
X00423487Y00216847D01*
X00423756Y00216369D01*
X00423942Y00215959D01*
X00424056Y00215626D01*
X00424105Y00215395D01*
Y00178095D01*
X00421565Y00177043D01*
X00413884Y00184724D01*
X00412518Y00185773D01*
X00410927Y00186432D01*
X0040922Y00186656D01*
X0036907D01*
X00368146Y00186668D01*
X0036574Y00186817D01*
X00364876Y00186931D01*
X003642Y00187067D01*
X0036414Y00187085D01*
Y001886D01*
X00361666D01*
X0036157Y00188619D01*
X00361473Y001886D01*
X00349727D01*
X00349631Y00188619D01*
X00349534Y001886D01*
X0034706D01*
Y00187085D01*
X00347Y00187067D01*
X00346388Y00186944D01*
X00343028Y00186668D01*
X0034213Y00186656D01*
X00335D01*
X00333293Y00186432D01*
X00331702Y00185773D01*
X00330336Y00184724D01*
X00321726Y00176114D01*
X00320677Y00174748D01*
X00320018Y00173157D01*
X00319794Y0017145D01*
Y00131002D01*
X00314768Y00125976D01*
X00211012D01*
X00204716Y00132272D01*
Y0016764D01*
X00204492Y00169347D01*
X00203833Y00170938D01*
X00202784Y00172304D01*
X00190644Y00184444D01*
X00189278Y00185493D01*
X00187687Y00186152D01*
X0018598Y00186376D01*
X0016206D01*
X00161136Y00186388D01*
X0015873Y00186537D01*
X00157866Y00186651D01*
X0015719Y00186787D01*
X0015713Y00186805D01*
Y0018832D01*
X00154656D01*
X00154559Y00188339D01*
X00154463Y0018832D01*
X0014005D01*
Y0017124D01*
X00154463D01*
X00154559Y00171221D01*
X00154656Y0017124D01*
X0015713D01*
Y00172755D01*
X0015719Y00172773D01*
X00157802Y00172896D01*
X00161162Y00173172D01*
X0016206Y00173184D01*
X00183248D01*
X00191524Y00164908D01*
Y0012954D01*
X00191748Y00127833D01*
X00192407Y00126242D01*
X00193456Y00124876D01*
X00203616Y00114716D01*
X00204982Y00113667D01*
X00206573Y00113008D01*
X0020828Y00112784D01*
X00215732D01*
X00216067Y00110244D01*
X00214507Y00109826D01*
X00212183Y00108484D01*
X00210286Y00106587D01*
X00208944Y00104263D01*
X0020825Y00101672D01*
Y00098988D01*
X00208944Y00096397D01*
X00210286Y00094073D01*
X00212183Y00092176D01*
X00214507Y00090834D01*
X00217098Y0009014D01*
X00219782D01*
X00222373Y00090834D01*
X00224697Y00092176D01*
X00226594Y00094073D01*
X00227936Y00096397D01*
X0022863Y00098988D01*
Y00101672D01*
X00227936Y00104263D01*
X00226594Y00106587D01*
X00224697Y00108484D01*
X00222373Y00109826D01*
X00220813Y00110244D01*
X00221148Y00112784D01*
X00241132D01*
X00241467Y00110244D01*
X00239907Y00109826D01*
X00237583Y00108484D01*
X00235686Y00106587D01*
X00234344Y00104263D01*
X0023365Y00101672D01*
Y00098988D01*
X00234344Y00096397D01*
X00235686Y00094073D01*
X00237583Y00092176D01*
X00239907Y00090834D01*
X00242498Y0009014D01*
X00245182D01*
X00247773Y00090834D01*
X00250097Y00092176D01*
X00251994Y00094073D01*
X00253336Y00096397D01*
X0025403Y00098988D01*
Y00101672D01*
X00253336Y00104263D01*
X00251994Y00106587D01*
X00250097Y00108484D01*
X00247773Y00109826D01*
X00246213Y00110244D01*
X00246548Y00112784D01*
X00282699D01*
X00283866Y00112722D01*
X00284882Y00112543D01*
X00285689Y00112274D01*
X00286313Y00111938D01*
X002868Y0011154D01*
X00287198Y00111053D01*
X00287534Y00110429D01*
X00287803Y00109622D01*
X00287897Y00109089D01*
X00287871Y0010891D01*
X00287782Y00108478D01*
X00287686Y00108133D01*
X00287593Y00107881D01*
X00287515Y00107722D01*
X00287469Y00107651D01*
X00287332Y00107494D01*
X0028725Y00107351D01*
X00286486Y00106587D01*
X00285144Y00104263D01*
X0028445Y00101672D01*
Y00098988D01*
X00285144Y00096397D01*
X00286486Y00094073D01*
X00288383Y00092176D01*
X00290707Y00090834D01*
X00293298Y0009014D01*
X00295982D01*
X00298573Y00090834D01*
X00300897Y00092176D01*
X00302794Y00094073D01*
X00304136Y00096397D01*
X0030483Y00098988D01*
Y00101672D01*
X00304136Y00104263D01*
X00302794Y00106587D01*
X0030203Y00107351D01*
X00301948Y00107494D01*
X00301811Y00107651D01*
X00301765Y00107722D01*
X00301687Y00107881D01*
X00301594Y00108133D01*
X00301498Y00108478D01*
X00301409Y0010891D01*
X00301383Y00109089D01*
X00301477Y00109622D01*
X00301746Y00110429D01*
X00302082Y00111053D01*
X0030248Y0011154D01*
X00302967Y00111938D01*
X00303591Y00112274D01*
X00304398Y00112543D01*
X00305414Y00112722D01*
X00306581Y00112784D01*
X003175D01*
X00319207Y00113008D01*
X00320798Y00113667D01*
X00322164Y00114716D01*
X00331054Y00123606D01*
X00332103Y00124972D01*
X00332762Y00126563D01*
X00332986Y0012827D01*
Y00168718D01*
X00337732Y00173464D01*
X0034213D01*
X00343054Y00173452D01*
X0034546Y00173304D01*
X00346324Y00173189D01*
X00347Y00173053D01*
X0034706Y00173035D01*
Y0017152D01*
X00349534D01*
X00349631Y00171501D01*
X00349727Y0017152D01*
X00361473D01*
X0036157Y00171501D01*
X00361666Y0017152D01*
X0036414D01*
Y00173035D01*
X003642Y00173053D01*
X00364812Y00173176D01*
X00368172Y00173452D01*
X0036907Y00173464D01*
X00406488D01*
X00411234Y00168718D01*
Y0012446D01*
X00411458Y00122753D01*
X00412117Y00121162D01*
X00413166Y00119796D01*
X00418246Y00114716D01*
X00419612Y00113667D01*
X00421203Y00113008D01*
X0042291Y00112784D01*
X00425282D01*
X00425617Y00110244D01*
X00424057Y00109826D01*
X00421733Y00108484D01*
X00419836Y00106587D01*
X00418494Y00104263D01*
X004178Y00101672D01*
Y00098988D01*
X00418494Y00096397D01*
X00419836Y00094073D01*
X00421733Y00092176D01*
X00424057Y00090834D01*
X00426648Y0009014D01*
X00429332D01*
X00431923Y00090834D01*
X00434247Y00092176D01*
X00436144Y00094073D01*
X00437486Y00096397D01*
X0043818Y00098988D01*
Y00101672D01*
X00437486Y00104263D01*
X00436144Y00106587D01*
X00434247Y00108484D01*
X00431923Y00109826D01*
X00430363Y00110244D01*
X00430698Y00112784D01*
X00450682D01*
X00451017Y00110244D01*
X00449457Y00109826D01*
X00447133Y00108484D01*
X00445236Y00106587D01*
X00443894Y00104263D01*
X004432Y00101672D01*
Y00098988D01*
X00443894Y00096397D01*
X00445236Y00094073D01*
X00447133Y00092176D01*
X00449457Y00090834D01*
X00452048Y0009014D01*
X00454732D01*
X00457323Y00090834D01*
X00459647Y00092176D01*
X00461544Y00094073D01*
X00462886Y00096397D01*
X0046358Y00098988D01*
Y00101672D01*
X00462886Y00104263D01*
X00461544Y00106587D01*
X00459647Y00108484D01*
X00457323Y00109826D01*
X00455763Y00110244D01*
X00456098Y00112784D01*
X00495787D01*
X00497337Y00111009D01*
X00497578Y00110577D01*
X00497492Y00109398D01*
X00497421Y0010891D01*
X00497332Y00108478D01*
X00497236Y00108133D01*
X00497143Y00107881D01*
X00497065Y00107722D01*
X00497019Y00107651D01*
X00496882Y00107494D01*
X004968Y00107351D01*
X00496036Y00106587D01*
X00494694Y00104263D01*
X00494Y00101672D01*
Y00098988D01*
X00494694Y00096397D01*
X00496036Y00094073D01*
X00497933Y00092176D01*
X00500257Y00090834D01*
X00502848Y0009014D01*
X00505532D01*
X00508123Y00090834D01*
X00510447Y00092176D01*
X00512344Y00094073D01*
X00513686Y00096397D01*
X0051438Y00098988D01*
Y00101672D01*
X00513686Y00104263D01*
X00512344Y00106587D01*
X0051158Y00107351D01*
X00511498Y00107494D01*
X00511361Y00107651D01*
X00511315Y00107722D01*
X00511237Y00107881D01*
X00511144Y00108133D01*
X00511048Y00108478D01*
X00510959Y0010891D01*
X00510888Y00109398D01*
X00510792Y00110722D01*
X00510786Y00111052D01*
Y00114694D01*
X00510562Y00116401D01*
X00509903Y00117992D01*
X00508854Y00119358D01*
X00504168Y00124044D01*
X00502802Y00125093D01*
X00501211Y00125752D01*
X00499504Y00125976D01*
X00425642D01*
X00424426Y00127192D01*
Y00146878D01*
X00426966Y0014793D01*
X00436673Y00138223D01*
X00437933Y00137381D01*
X0043942Y00137085D01*
X00468149D01*
X00468331Y00137049D01*
X00468615Y00136957D01*
X00468961Y00136806D01*
X00469365Y00136587D01*
X0046982Y00136295D01*
X00470296Y00135946D01*
X0047146Y0013494D01*
X00472083Y00134328D01*
X00472285Y00134195D01*
X00473024Y00133456D01*
X00475166Y0013222D01*
X00477554Y0013158D01*
X00480026D01*
X00482414Y0013222D01*
X00484556Y00133456D01*
X00486304Y00135204D01*
X0048754Y00137346D01*
X0048818Y00139734D01*
Y00142206D01*
X0048754Y00144594D01*
X00486304Y00146736D01*
X00484556Y00148484D01*
X00482414Y0014972D01*
X00480026Y0015036D01*
X00477554D01*
X00475166Y0014972D01*
X00473024Y00148484D01*
X00472304Y00147763D01*
X0047212Y00147648D01*
X00470841Y0014644D01*
X00470321Y00146012D01*
X00469821Y00145645D01*
X00469365Y00145353D01*
X00468961Y00145134D01*
X00468615Y00144983D01*
X00468331Y00144891D01*
X00468149Y00144855D01*
X00441029D01*
X00431875Y00154009D01*
Y00215395D01*
X00431924Y00215626D01*
X00432038Y00215959D01*
X00432225Y00216369D01*
X00432493Y00216847D01*
X00432849Y00217385D01*
X00433274Y00217952D01*
X00434467Y00219316D01*
X00435189Y00220049D01*
X00435323Y00220253D01*
X00436144Y00221073D01*
X00437486Y00223397D01*
X0043818Y00225988D01*
Y00228672D01*
X00437486Y00231263D01*
X00436144Y00233587D01*
X00434247Y00235484D01*
X00431923Y00236826D01*
X00429332Y0023752D01*
D02*
G37*
G36*
X00039606Y0019944D02*
X00036594D01*
X0003364Y00198852D01*
X00030858Y001977D01*
X00028353Y00196026D01*
X00026223Y00193897D01*
X0002455Y00191392D01*
X00023398Y0018861D01*
X0002281Y00185656D01*
Y00182644D01*
X00023398Y0017969D01*
X0002455Y00176908D01*
X00026223Y00174403D01*
X00028353Y00172274D01*
X00030858Y001706D01*
X0003364Y00169448D01*
X00036594Y0016886D01*
X00039606D01*
X0004256Y00169448D01*
X00045342Y001706D01*
X00047847Y00172274D01*
X00049977Y00174403D01*
X0005165Y00176908D01*
X00052802Y0017969D01*
X0005339Y00182644D01*
Y00185656D01*
X00052802Y0018861D01*
X0005165Y00191392D01*
X00049977Y00193897D01*
X00047847Y00196026D01*
X00045342Y001977D01*
X0004256Y00198852D01*
X00039606Y0019944D01*
D02*
G37*
G36*
X00505426Y0017576D02*
X00502954D01*
X00500566Y0017512D01*
X00498424Y00173884D01*
X00496676Y00172136D01*
X0049544Y00169994D01*
X004948Y00167606D01*
Y00165134D01*
X0049544Y00162746D01*
X00496676Y00160604D01*
X00498424Y00158856D01*
X00500566Y0015762D01*
X00502954Y0015698D01*
X00505426D01*
X00507814Y0015762D01*
X00509956Y00158856D01*
X00511704Y00160604D01*
X0051294Y00162746D01*
X0051358Y00165134D01*
Y00167606D01*
X0051294Y00169994D01*
X00511704Y00172136D01*
X00509956Y00173884D01*
X00507814Y0017512D01*
X00505426Y0017576D01*
D02*
G37*
G36*
X00454732Y0023752D02*
X00452048D01*
X00449457Y00236826D01*
X00447133Y00235484D01*
X00445236Y00233587D01*
X00443894Y00231263D01*
X004432Y00228672D01*
Y00225988D01*
X00443894Y00223397D01*
X00445236Y00221073D01*
X00446057Y00220253D01*
X00446191Y00220049D01*
X00446913Y00219316D01*
X00448106Y00217952D01*
X00448531Y00217385D01*
X00448887Y00216847D01*
X00449156Y00216369D01*
X00449342Y00215959D01*
X00449456Y00215626D01*
X00449505Y00215395D01*
Y0017399D01*
X00449801Y00172503D01*
X00450643Y00171243D01*
X00456993Y00164893D01*
X00458253Y00164051D01*
X0045974Y00163755D01*
X00468039D01*
X00468207Y0016372D01*
X0046843Y00163641D01*
X00468691Y0016351D01*
X00468992Y00163315D01*
X00469329Y00163045D01*
X00469699Y00162694D01*
X00470095Y00162258D01*
X0047051Y00161735D01*
X00470978Y00161072D01*
X0047104Y00161012D01*
X00471276Y00160604D01*
X00473024Y00158856D01*
X00475166Y0015762D01*
X00477554Y0015698D01*
X00480026D01*
X00482414Y0015762D01*
X00484556Y00158856D01*
X00486304Y00160604D01*
X0048754Y00162746D01*
X0048818Y00165134D01*
Y00167606D01*
X0048754Y00169994D01*
X00486304Y00172136D01*
X00484556Y00173884D01*
X00482414Y0017512D01*
X00480026Y0017576D01*
X00477554D01*
X00475166Y0017512D01*
X0047358Y00174205D01*
X00473443Y00174149D01*
X00473168Y00173967D01*
X00473024Y00173884D01*
X00472989Y00173848D01*
X00471815Y00173071D01*
X00471157Y00172676D01*
X00469901Y00172014D01*
X00469427Y00171807D01*
X00469005Y00171652D01*
X00468672Y00171557D01*
X00468498Y00171525D01*
X00461349D01*
X00457275Y00175599D01*
Y00215395D01*
X00457324Y00215626D01*
X00457438Y00215959D01*
X00457625Y00216369D01*
X00457893Y00216847D01*
X00458249Y00217385D01*
X00458675Y00217952D01*
X00459867Y00219316D01*
X00460589Y00220049D01*
X00460723Y00220253D01*
X00461544Y00221073D01*
X00462886Y00223397D01*
X0046358Y00225988D01*
Y00228672D01*
X00462886Y00231263D01*
X00461544Y00233587D01*
X00459647Y00235484D01*
X00457323Y00236826D01*
X00454732Y0023752D01*
D02*
G37*
G36*
X00295876Y0017576D02*
X00293404D01*
X00291016Y0017512D01*
X00288874Y00173884D01*
X00287126Y00172136D01*
X0028589Y00169994D01*
X0028525Y00167606D01*
Y00165134D01*
X0028589Y00162746D01*
X00287126Y00160604D01*
X00288874Y00158856D01*
X00291016Y0015762D01*
X00293404Y0015698D01*
X00295876D01*
X00298264Y0015762D01*
X00300406Y00158856D01*
X00302154Y00160604D01*
X0030339Y00162746D01*
X0030403Y00165134D01*
Y00167606D01*
X0030339Y00169994D01*
X00302154Y00172136D01*
X00300406Y00173884D01*
X00298264Y0017512D01*
X00295876Y0017576D01*
D02*
G37*
G36*
X00245182Y0023752D02*
X00242498D01*
X00239907Y00236826D01*
X00237583Y00235484D01*
X00235686Y00233587D01*
X00234344Y00231263D01*
X0023365Y00228672D01*
Y00225988D01*
X00234344Y00223397D01*
X00235686Y00221073D01*
X00237583Y00219176D01*
X00237921Y00218981D01*
X00237937Y00218964D01*
X00238714Y00218395D01*
X00239345Y00217881D01*
X00239878Y00217391D01*
X00240313Y00216931D01*
X00240653Y00216509D01*
X00240904Y00216131D01*
X00241073Y00215803D01*
X00241176Y00215526D01*
X00241225Y00215304D01*
Y0017399D01*
X00241521Y00172503D01*
X00242363Y00171243D01*
X00249983Y00163623D01*
X00251243Y00162781D01*
X0025273Y00162485D01*
X00258599D01*
X00258781Y00162449D01*
X00259065Y00162357D01*
X00259411Y00162206D01*
X00259815Y00161987D01*
X0026027Y00161695D01*
X00260746Y00161346D01*
X0026191Y0016034D01*
X00262533Y00159728D01*
X00262735Y00159595D01*
X00263474Y00158856D01*
X00265616Y0015762D01*
X00268004Y0015698D01*
X00270476D01*
X00272864Y0015762D01*
X00275006Y00158856D01*
X00276754Y00160604D01*
X0027799Y00162746D01*
X0027863Y00165134D01*
Y00167606D01*
X0027799Y00169994D01*
X00276754Y00172136D01*
X00275006Y00173884D01*
X00272864Y0017512D01*
X00270476Y0017576D01*
X00268004D01*
X00265616Y0017512D01*
X00263474Y00173884D01*
X00262754Y00173163D01*
X0026257Y00173048D01*
X00261291Y0017184D01*
X00260771Y00171412D01*
X00260271Y00171045D01*
X00259815Y00170753D01*
X00259411Y00170534D01*
X00259065Y00170383D01*
X00258781Y00170291D01*
X00258599Y00170255D01*
X00254339D01*
X00248995Y00175599D01*
Y00215692D01*
X00249039Y00215911D01*
X00249142Y00216248D01*
X00249629Y00217375D01*
X00249936Y00217955D01*
X00251487Y00220414D01*
X00251861Y0022094D01*
X00251994Y00221073D01*
X00253336Y00223397D01*
X0025403Y00225988D01*
Y00228672D01*
X00253336Y00231263D01*
X00251994Y00233587D01*
X00250097Y00235484D01*
X00247773Y00236826D01*
X00245182Y0023752D01*
D02*
G37*
G36*
X00505426Y0015036D02*
X00502954D01*
X00500566Y0014972D01*
X00498424Y00148484D01*
X00496676Y00146736D01*
X0049544Y00144594D01*
X004948Y00142206D01*
Y00139734D01*
X0049544Y00137346D01*
X00496676Y00135204D01*
X00498424Y00133456D01*
X00500566Y0013222D01*
X00502954Y0013158D01*
X00505426D01*
X00507814Y0013222D01*
X00509956Y00133456D01*
X00511704Y00135204D01*
X0051294Y00137346D01*
X0051358Y00139734D01*
Y00142206D01*
X0051294Y00144594D01*
X00511704Y00146736D01*
X00509956Y00148484D01*
X00507814Y0014972D01*
X00505426Y0015036D01*
D02*
G37*
G36*
X00295876D02*
X00293404D01*
X00291016Y0014972D01*
X00288874Y00148484D01*
X00287126Y00146736D01*
X0028589Y00144594D01*
X0028525Y00142206D01*
Y00139734D01*
X0028589Y00137346D01*
X00287126Y00135204D01*
X00288874Y00133456D01*
X00291016Y0013222D01*
X00293404Y0013158D01*
X00295876D01*
X00298264Y0013222D01*
X00300406Y00133456D01*
X00302154Y00135204D01*
X0030339Y00137346D01*
X0030403Y00139734D01*
Y00142206D01*
X0030339Y00144594D01*
X00302154Y00146736D01*
X00300406Y00148484D01*
X00298264Y0014972D01*
X00295876Y0015036D01*
D02*
G37*
G36*
X00219782Y0023752D02*
X00217098D01*
X00214507Y00236826D01*
X00212183Y00235484D01*
X00210286Y00233587D01*
X00208944Y00231263D01*
X0020825Y00228672D01*
Y00225988D01*
X00208944Y00223397D01*
X00210286Y00221073D01*
X00211107Y00220253D01*
X00211241Y00220049D01*
X00211963Y00219316D01*
X00213155Y00217952D01*
X00213581Y00217385D01*
X00213937Y00216847D01*
X00214206Y00216369D01*
X00214392Y00215959D01*
X00214506Y00215626D01*
X00214555Y00215395D01*
Y0014859D01*
X00214851Y00147103D01*
X00215693Y00145843D01*
X00223313Y00138223D01*
X00224573Y00137381D01*
X0022606Y00137085D01*
X00258599D01*
X00258781Y00137049D01*
X00259065Y00136957D01*
X00259411Y00136806D01*
X00259815Y00136587D01*
X0026027Y00136295D01*
X00260746Y00135946D01*
X0026191Y0013494D01*
X00262533Y00134328D01*
X00262735Y00134195D01*
X00263474Y00133456D01*
X00265616Y0013222D01*
X00268004Y0013158D01*
X00270476D01*
X00272864Y0013222D01*
X00275006Y00133456D01*
X00276754Y00135204D01*
X0027799Y00137346D01*
X0027863Y00139734D01*
Y00142206D01*
X0027799Y00144594D01*
X00276754Y00146736D01*
X00275006Y00148484D01*
X00272864Y0014972D01*
X00270476Y0015036D01*
X00268004D01*
X00265616Y0014972D01*
X00263474Y00148484D01*
X00262754Y00147763D01*
X0026257Y00147648D01*
X00261291Y0014644D01*
X00260771Y00146012D01*
X00260271Y00145645D01*
X00259815Y00145353D01*
X00259411Y00145134D01*
X00259065Y00144983D01*
X00258781Y00144891D01*
X00258599Y00144855D01*
X00227669D01*
X00222325Y00150199D01*
Y00215395D01*
X00222374Y00215626D01*
X00222488Y00215959D01*
X00222675Y00216369D01*
X00222943Y00216847D01*
X00223299Y00217385D01*
X00223724Y00217952D01*
X00224917Y00219316D01*
X00225639Y00220049D01*
X00225773Y00220253D01*
X00226594Y00221073D01*
X00227936Y00223397D01*
X0022863Y00225988D01*
Y00228672D01*
X00227936Y00231263D01*
X00226594Y00233587D01*
X00224697Y00235484D01*
X00222373Y00236826D01*
X00219782Y0023752D01*
D02*
G37*
G36*
X00403932Y0011052D02*
X00401248D01*
X00398657Y00109826D01*
X00396333Y00108484D01*
X00394436Y00106587D01*
X00393094Y00104263D01*
X003924Y00101672D01*
Y00098988D01*
X00393094Y00096397D01*
X00394436Y00094073D01*
X00396333Y00092176D01*
X00398657Y00090834D01*
X00401248Y0009014D01*
X00403932D01*
X00406523Y00090834D01*
X00408847Y00092176D01*
X00410744Y00094073D01*
X00412086Y00096397D01*
X0041278Y00098988D01*
Y00101672D01*
X00412086Y00104263D01*
X00410744Y00106587D01*
X00408847Y00108484D01*
X00406523Y00109826D01*
X00403932Y0011052D01*
D02*
G37*
G36*
X00378532D02*
X00375848D01*
X00373257Y00109826D01*
X00370933Y00108484D01*
X00369036Y00106587D01*
X00367694Y00104263D01*
X00367Y00101672D01*
Y00098988D01*
X00367694Y00096397D01*
X00369036Y00094073D01*
X00370933Y00092176D01*
X00373257Y00090834D01*
X00375848Y0009014D01*
X00378532D01*
X00381123Y00090834D01*
X00383447Y00092176D01*
X00385344Y00094073D01*
X00386686Y00096397D01*
X0038738Y00098988D01*
Y00101672D01*
X00386686Y00104263D01*
X00385344Y00106587D01*
X00383447Y00108484D01*
X00381123Y00109826D01*
X00378532Y0011052D01*
D02*
G37*
G36*
X00353132D02*
X00350448D01*
X00347857Y00109826D01*
X00345533Y00108484D01*
X00343636Y00106587D01*
X00342294Y00104263D01*
X003416Y00101672D01*
Y00098988D01*
X00342294Y00096397D01*
X00343636Y00094073D01*
X00345533Y00092176D01*
X00347857Y00090834D01*
X00350448Y0009014D01*
X00353132D01*
X00355723Y00090834D01*
X00358047Y00092176D01*
X00359944Y00094073D01*
X00361286Y00096397D01*
X0036198Y00098988D01*
Y00101672D01*
X00361286Y00104263D01*
X00359944Y00106587D01*
X00358047Y00108484D01*
X00355723Y00109826D01*
X00353132Y0011052D01*
D02*
G37*
G36*
X00194382D02*
X00191698D01*
X00189107Y00109826D01*
X00186783Y00108484D01*
X00184886Y00106587D01*
X00183544Y00104263D01*
X0018285Y00101672D01*
Y00098988D01*
X00183544Y00096397D01*
X00184886Y00094073D01*
X00186783Y00092176D01*
X00189107Y00090834D01*
X00191698Y0009014D01*
X00194382D01*
X00196973Y00090834D01*
X00199297Y00092176D01*
X00201194Y00094073D01*
X00202536Y00096397D01*
X0020323Y00098988D01*
Y00101672D01*
X00202536Y00104263D01*
X00201194Y00106587D01*
X00199297Y00108484D01*
X00196973Y00109826D01*
X00194382Y0011052D01*
D02*
G37*
G36*
X00168982D02*
X00166298D01*
X00163707Y00109826D01*
X00161383Y00108484D01*
X00159486Y00106587D01*
X00158144Y00104263D01*
X0015745Y00101672D01*
Y00098988D01*
X00158144Y00096397D01*
X00159486Y00094073D01*
X00161383Y00092176D01*
X00163707Y00090834D01*
X00166298Y0009014D01*
X00168982D01*
X00171573Y00090834D01*
X00173897Y00092176D01*
X00175794Y00094073D01*
X00177136Y00096397D01*
X0017783Y00098988D01*
Y00101672D01*
X00177136Y00104263D01*
X00175794Y00106587D01*
X00173897Y00108484D01*
X00171573Y00109826D01*
X00168982Y0011052D01*
D02*
G37*
G36*
X00143582D02*
X00140898D01*
X00138307Y00109826D01*
X00135983Y00108484D01*
X00134086Y00106587D01*
X00132744Y00104263D01*
X0013205Y00101672D01*
Y00098988D01*
X00132744Y00096397D01*
X00134086Y00094073D01*
X00135983Y00092176D01*
X00138307Y00090834D01*
X00140898Y0009014D01*
X00143582D01*
X00146173Y00090834D01*
X00148497Y00092176D01*
X00150394Y00094073D01*
X00151736Y00096397D01*
X0015243Y00098988D01*
Y00101672D01*
X00151736Y00104263D01*
X00150394Y00106587D01*
X00148497Y00108484D01*
X00146173Y00109826D01*
X00143582Y0011052D01*
D02*
G37*
G36*
X00039606Y0009944D02*
X00036594D01*
X0003364Y00098852D01*
X00030858Y000977D01*
X00028353Y00096026D01*
X00026223Y00093897D01*
X0002455Y00091392D01*
X00023398Y0008861D01*
X0002281Y00085656D01*
Y00082644D01*
X00023398Y0007969D01*
X0002455Y00076908D01*
X00026223Y00074403D01*
X00028353Y00072274D01*
X00030858Y000706D01*
X0003364Y00069448D01*
X00036594Y0006886D01*
X00039606D01*
X0004256Y00069448D01*
X00045342Y000706D01*
X00047847Y00072274D01*
X00049977Y00074403D01*
X0005165Y00076908D01*
X00052802Y0007969D01*
X0005339Y00082644D01*
Y00085656D01*
X00052802Y0008861D01*
X0005165Y00091392D01*
X00049977Y00093897D01*
X00047847Y00096026D01*
X00045342Y000977D01*
X0004256Y00098852D01*
X00039606Y0009944D01*
D02*
G37*
G36*
X00458046Y000572D02*
X00455034D01*
X0045208Y00056612D01*
X00449297Y0005546D01*
X00446793Y00053787D01*
X00444664Y00051657D01*
X0044299Y00049152D01*
X00441838Y0004637D01*
X0044125Y00043416D01*
Y00040404D01*
X00441838Y0003745D01*
X0044299Y00034667D01*
X00444664Y00032163D01*
X00446793Y00030034D01*
X00449297Y0002836D01*
X0045208Y00027208D01*
X00455034Y0002662D01*
X00458046D01*
X00461Y00027208D01*
X00463783Y0002836D01*
X00466287Y00030034D01*
X00468416Y00032163D01*
X0047009Y00034667D01*
X00471242Y0003745D01*
X0047183Y00040404D01*
Y00043416D01*
X00471242Y0004637D01*
X0047009Y00049152D01*
X00468416Y00051657D01*
X00466287Y00053787D01*
X00463783Y0005546D01*
X00461Y00056612D01*
X00458046Y000572D01*
D02*
G37*
G36*
X00408046D02*
X00405034D01*
X0040208Y00056612D01*
X00399297Y0005546D01*
X00396793Y00053787D01*
X00394664Y00051657D01*
X0039299Y00049152D01*
X00391838Y0004637D01*
X0039125Y00043416D01*
Y00040404D01*
X00391838Y0003745D01*
X0039299Y00034667D01*
X00394664Y00032163D01*
X00396793Y00030034D01*
X00399297Y0002836D01*
X0040208Y00027208D01*
X00405034Y0002662D01*
X00408046D01*
X00411Y00027208D01*
X00413783Y0002836D01*
X00416287Y00030034D01*
X00418416Y00032163D01*
X0042009Y00034667D01*
X00421242Y0003745D01*
X0042183Y00040404D01*
Y00043416D01*
X00421242Y0004637D01*
X0042009Y00049152D01*
X00418416Y00051657D01*
X00416287Y00053787D01*
X00413783Y0005546D01*
X00411Y00056612D01*
X00408046Y000572D01*
D02*
G37*
G36*
X00358046D02*
X00355034D01*
X0035208Y00056612D01*
X00349297Y0005546D01*
X00346793Y00053787D01*
X00344664Y00051657D01*
X0034299Y00049152D01*
X00341838Y0004637D01*
X0034125Y00043416D01*
Y00040404D01*
X00341838Y0003745D01*
X0034299Y00034667D01*
X00344664Y00032163D01*
X00346793Y00030034D01*
X00349297Y0002836D01*
X0035208Y00027208D01*
X00355034Y0002662D01*
X00358046D01*
X00361Y00027208D01*
X00363783Y0002836D01*
X00366287Y00030034D01*
X00368416Y00032163D01*
X0037009Y00034667D01*
X00371242Y0003745D01*
X0037183Y00040404D01*
Y00043416D01*
X00371242Y0004637D01*
X0037009Y00049152D01*
X00368416Y00051657D01*
X00366287Y00053787D01*
X00363783Y0005546D01*
X00361Y00056612D01*
X00358046Y000572D01*
D02*
G37*
G36*
X00308046D02*
X00305034D01*
X0030208Y00056612D01*
X00299298Y0005546D01*
X00296793Y00053787D01*
X00294664Y00051657D01*
X0029299Y00049152D01*
X00291838Y0004637D01*
X0029125Y00043416D01*
Y00040404D01*
X00291838Y0003745D01*
X0029299Y00034667D01*
X00294664Y00032163D01*
X00296793Y00030034D01*
X00299298Y0002836D01*
X0030208Y00027208D01*
X00305034Y0002662D01*
X00308046D01*
X00311Y00027208D01*
X00313783Y0002836D01*
X00316287Y00030034D01*
X00318417Y00032163D01*
X0032009Y00034667D01*
X00321242Y0003745D01*
X0032183Y00040404D01*
Y00043416D01*
X00321242Y0004637D01*
X0032009Y00049152D01*
X00318417Y00051657D01*
X00316287Y00053787D01*
X00313783Y0005546D01*
X00311Y00056612D01*
X00308046Y000572D01*
D02*
G37*
G36*
X00258046D02*
X00255034D01*
X0025208Y00056612D01*
X00249298Y0005546D01*
X00246793Y00053787D01*
X00244664Y00051657D01*
X0024299Y00049152D01*
X00241838Y0004637D01*
X0024125Y00043416D01*
Y00040404D01*
X00241838Y0003745D01*
X0024299Y00034667D01*
X00244664Y00032163D01*
X00246793Y00030034D01*
X00249298Y0002836D01*
X0025208Y00027208D01*
X00255034Y0002662D01*
X00258046D01*
X00261Y00027208D01*
X00263783Y0002836D01*
X00266287Y00030034D01*
X00268417Y00032163D01*
X0027009Y00034667D01*
X00271242Y0003745D01*
X0027183Y00040404D01*
Y00043416D01*
X00271242Y0004637D01*
X0027009Y00049152D01*
X00268417Y00051657D01*
X00266287Y00053787D01*
X00263783Y0005546D01*
X00261Y00056612D01*
X00258046Y000572D01*
D02*
G37*
G36*
X00208046D02*
X00205034D01*
X0020208Y00056612D01*
X00199298Y0005546D01*
X00196793Y00053787D01*
X00194664Y00051657D01*
X0019299Y00049152D01*
X00191838Y0004637D01*
X0019125Y00043416D01*
Y00040404D01*
X00191838Y0003745D01*
X0019299Y00034667D01*
X00194664Y00032163D01*
X00196793Y00030034D01*
X00199298Y0002836D01*
X0020208Y00027208D01*
X00205034Y0002662D01*
X00208046D01*
X00211Y00027208D01*
X00213783Y0002836D01*
X00216287Y00030034D01*
X00218417Y00032163D01*
X0022009Y00034667D01*
X00221242Y0003745D01*
X0022183Y00040404D01*
Y00043416D01*
X00221242Y0004637D01*
X0022009Y00049152D01*
X00218417Y00051657D01*
X00216287Y00053787D01*
X00213783Y0005546D01*
X00211Y00056612D01*
X00208046Y000572D01*
D02*
G37*
G36*
X00158046D02*
X00155034D01*
X0015208Y00056612D01*
X00149298Y0005546D01*
X00146793Y00053787D01*
X00144663Y00051657D01*
X0014299Y00049152D01*
X00141838Y0004637D01*
X0014125Y00043416D01*
Y00040404D01*
X00141838Y0003745D01*
X0014299Y00034667D01*
X00144663Y00032163D01*
X00146793Y00030034D01*
X00149298Y0002836D01*
X0015208Y00027208D01*
X00155034Y0002662D01*
X00158046D01*
X00161Y00027208D01*
X00163783Y0002836D01*
X00166287Y00030034D01*
X00168417Y00032163D01*
X0017009Y00034667D01*
X00171242Y0003745D01*
X0017183Y00040404D01*
Y00043416D01*
X00171242Y0004637D01*
X0017009Y00049152D01*
X00168417Y00051657D01*
X00166287Y00053787D01*
X00163783Y0005546D01*
X00161Y00056612D01*
X00158046Y000572D01*
D02*
G37*
G36*
X0012183D02*
X0009125D01*
Y0002662D01*
X0012183D01*
Y000572D01*
D02*
G37*
%LPD*%
G36*
X0047757Y0028802D02*
X00477721Y0028737D01*
X00477973Y00286681D01*
X00478325Y00285952D01*
X00478778Y00285183D01*
X00479331Y00284375D01*
X00479985Y00283528D01*
X00481594Y00281714D01*
X0048255Y00280747D01*
X0046995D01*
X00470906Y00281714D01*
X00472515Y00283528D01*
X00473169Y00284375D01*
X00473722Y00285183D01*
X00474175Y00285952D01*
X00474527Y00286681D01*
X00474779Y0028737D01*
X0047493Y0028802D01*
X0047498Y0028863D01*
X0047752D01*
X0047757Y0028802D01*
D02*
G37*
G36*
X00048668Y00291621D02*
X00052604Y00288176D01*
X00053765Y00287334D01*
X0005485Y00286645D01*
X0005586Y00286109D01*
X00056794Y00285726D01*
X00057653Y00285497D01*
X00058437Y0028542D01*
Y0028288D01*
X00057653Y00282803D01*
X00056794Y00282574D01*
X0005586Y00282191D01*
X0005485Y00281655D01*
X00053765Y00280966D01*
X00052604Y00280124D01*
X00050056Y00277981D01*
X00048668Y00276679D01*
X00047205Y00275225D01*
Y00293075D01*
X00048668Y00291621D01*
D02*
G37*
G36*
X00278394Y00266926D02*
X00276785Y00265112D01*
X00276131Y00264265D01*
X00275578Y00263457D01*
X00275125Y00262688D01*
X00274773Y00261959D01*
X00274521Y0026127D01*
X0027437Y0026062D01*
X0027432Y0026001D01*
X0027178D01*
X0027173Y0026062D01*
X00271579Y0026127D01*
X00271327Y00261959D01*
X00270975Y00262688D01*
X00270522Y00263457D01*
X00269969Y00264265D01*
X00269315Y00265112D01*
X00267706Y00266926D01*
X0026675Y00267893D01*
X0027935D01*
X00278394Y00266926D01*
D02*
G37*
G36*
X00252994D02*
X00251385Y00265112D01*
X00250731Y00264265D01*
X00250177Y00263457D01*
X00249725Y00262688D01*
X00249373Y00261959D01*
X00249121Y0026127D01*
X0024897Y0026062D01*
X0024892Y0026001D01*
X0024638D01*
X0024633Y0026062D01*
X00246179Y0026127D01*
X00245927Y00261959D01*
X00245575Y00262688D01*
X00245123Y00263457D01*
X00244569Y00264265D01*
X00243915Y00265112D01*
X00242306Y00266926D01*
X0024135Y00267893D01*
X0025395D01*
X00252994Y00266926D01*
D02*
G37*
G36*
X00353101Y00238917D02*
X00353223Y00238344D01*
X00353428Y00237743D01*
X00353714Y00237117D01*
X00354081Y00236463D01*
X00354531Y00235783D01*
X00355062Y00235075D01*
X00356369Y00233581D01*
X00357145Y00232793D01*
X00346435D01*
X00347211Y00233581D01*
X00348518Y00235075D01*
X00349049Y00235783D01*
X00349499Y00236463D01*
X00349866Y00237117D01*
X00350152Y00237743D01*
X00350357Y00238344D01*
X00350479Y00238917D01*
X0035052Y00239464D01*
X0035306D01*
X00353101Y00238917D01*
D02*
G37*
G36*
X00143551D02*
X00143673Y00238344D01*
X00143878Y00237743D01*
X00144164Y00237117D01*
X00144531Y00236463D01*
X00144981Y00235783D01*
X00145512Y00235075D01*
X00146819Y00233581D01*
X00147595Y00232793D01*
X00136885D01*
X00137661Y00233581D01*
X00138968Y00235075D01*
X00139499Y00235783D01*
X00139949Y00236463D01*
X00140316Y00237117D01*
X00140602Y00237743D01*
X00140807Y00238344D01*
X00140929Y00238917D01*
X0014097Y00239464D01*
X0014351D01*
X00143551Y00238917D01*
D02*
G37*
G36*
X00397127Y00221975D02*
X00396339Y00222751D01*
X00394845Y00224058D01*
X00394137Y00224589D01*
X00393457Y00225039D01*
X00392803Y00225406D01*
X00392177Y00225692D01*
X00391576Y00225897D01*
X00391003Y00226019D01*
X00390456Y0022606D01*
Y002286D01*
X00391003Y00228641D01*
X00391576Y00228763D01*
X00392177Y00228968D01*
X00392803Y00229254D01*
X00393457Y00229621D01*
X00394137Y00230071D01*
X00394845Y00230602D01*
X00396339Y00231909D01*
X00397127Y00232685D01*
Y00221975D01*
D02*
G37*
G36*
X00383441Y00231909D02*
X00384935Y00230602D01*
X00385643Y00230071D01*
X00386323Y00229621D01*
X00386977Y00229254D01*
X00387603Y00228968D01*
X00388204Y00228763D01*
X00388777Y00228641D01*
X00389324Y002286D01*
Y0022606D01*
X00388777Y00226019D01*
X00388204Y00225897D01*
X00387603Y00225692D01*
X00386977Y00225406D01*
X00386323Y00225039D01*
X00385643Y00224589D01*
X00384935Y00224058D01*
X00383441Y00222751D01*
X00382653Y00221975D01*
Y00232685D01*
X00383441Y00231909D01*
D02*
G37*
G36*
X00187577Y00221975D02*
X00186789Y00222751D01*
X00185295Y00224058D01*
X00184587Y00224589D01*
X00183907Y00225039D01*
X00183253Y00225406D01*
X00182626Y00225692D01*
X00182026Y00225897D01*
X00181453Y00226019D01*
X00180906Y0022606D01*
Y002286D01*
X00181453Y00228641D01*
X00182026Y00228763D01*
X00182626Y00228968D01*
X00183253Y00229254D01*
X00183907Y00229621D01*
X00184587Y00230071D01*
X00185295Y00230602D01*
X00186789Y00231909D01*
X00187577Y00232685D01*
Y00221975D01*
D02*
G37*
G36*
X00173891Y00231909D02*
X00175385Y00230602D01*
X00176092Y00230071D01*
X00176773Y00229621D01*
X00177427Y00229254D01*
X00178053Y00228968D01*
X00178654Y00228763D01*
X00179227Y00228641D01*
X00179774Y002286D01*
Y0022606D01*
X00179227Y00226019D01*
X00178654Y00225897D01*
X00178053Y00225692D01*
X00177427Y00225406D01*
X00176773Y00225039D01*
X00176092Y00224589D01*
X00175385Y00224058D01*
X00173891Y00222751D01*
X00173103Y00221975D01*
Y00232685D01*
X00173891Y00231909D01*
D02*
G37*
G36*
X00483369Y00221079D02*
X00482062Y00219585D01*
X00481531Y00218878D01*
X00481081Y00218197D01*
X00480714Y00217543D01*
X00480428Y00216917D01*
X00480223Y00216316D01*
X00480101Y00215743D01*
X0048006Y00215196D01*
X0047752D01*
X00477479Y00215743D01*
X00477357Y00216316D01*
X00477152Y00216917D01*
X00476866Y00217543D01*
X00476499Y00218197D01*
X00476049Y00218878D01*
X00475518Y00219585D01*
X00474211Y00221079D01*
X00473435Y00221867D01*
X00484145D01*
X00483369Y00221079D01*
D02*
G37*
G36*
X00480073Y00200647D02*
X00480111Y00200215D01*
X00480174Y00199834D01*
X00480263Y00199504D01*
X00480378Y00199224D01*
X00480517Y00198996D01*
X00480682Y00198818D01*
X00480873Y00198691D01*
X00481089Y00198615D01*
X0048133Y00198589D01*
X0047625D01*
X00476491Y00198615D01*
X00476707Y00198691D01*
X00476898Y00198818D01*
X00477063Y00198996D01*
X00477202Y00199224D01*
X00477317Y00199504D01*
X00477406Y00199834D01*
X00477469Y00200215D01*
X00477507Y00200647D01*
X0047752Y00201129D01*
X0048006D01*
X00480073Y00200647D01*
D02*
G37*
G36*
X00273819Y00221079D02*
X00272512Y00219585D01*
X00271981Y00218878D01*
X00271531Y00218197D01*
X00271164Y00217543D01*
X00270878Y00216917D01*
X00270673Y00216316D01*
X00270551Y00215743D01*
X0027051Y00215196D01*
X0026797D01*
X00267929Y00215743D01*
X00267807Y00216316D01*
X00267602Y00216917D01*
X00267316Y00217543D01*
X00266949Y00218197D01*
X00266499Y00218878D01*
X00265968Y00219585D01*
X00264661Y00221079D01*
X00263885Y00221867D01*
X00274595D01*
X00273819Y00221079D01*
D02*
G37*
G36*
X00270523Y00200647D02*
X00270561Y00200215D01*
X00270624Y00199834D01*
X00270713Y00199504D01*
X00270828Y00199224D01*
X00270967Y00198996D01*
X00271132Y00198818D01*
X00271323Y00198691D01*
X00271539Y00198615D01*
X0027178Y00198589D01*
X002667D01*
X00266941Y00198615D01*
X00267157Y00198691D01*
X00267348Y00198818D01*
X00267513Y00198996D01*
X00267652Y00199224D01*
X00267767Y00199504D01*
X00267856Y00199834D01*
X00267919Y00200215D01*
X00267957Y00200647D01*
X0026797Y00201129D01*
X0027051D01*
X00270523Y00200647D01*
D02*
G37*
G36*
X00432569Y00221079D02*
X00431262Y00219585D01*
X00430731Y00218878D01*
X00430281Y00218197D01*
X00429914Y00217543D01*
X00429628Y00216917D01*
X00429423Y00216316D01*
X00429301Y00215743D01*
X0042926Y00215196D01*
X0042672D01*
X00426679Y00215743D01*
X00426557Y00216316D01*
X00426352Y00216917D01*
X00426066Y00217543D01*
X00425699Y00218197D01*
X00425249Y00218878D01*
X00424718Y00219585D01*
X00423411Y00221079D01*
X00422635Y00221867D01*
X00433345D01*
X00432569Y00221079D01*
D02*
G37*
G36*
X0036165Y00185655D02*
X00361889Y0018532D01*
X0036229Y00185025D01*
X0036285Y00184769D01*
X00363569Y00184552D01*
X0036445Y00184375D01*
X0036549Y00184237D01*
X0036805Y0018408D01*
X0036957Y0018406D01*
Y0017606D01*
X0036805Y0017604D01*
X0036445Y00175745D01*
X00363569Y00175568D01*
X0036285Y00175351D01*
X0036229Y00175095D01*
X00361889Y00174799D01*
X0036165Y00174465D01*
X0036157Y0017409D01*
Y00186029D01*
X0036165Y00185655D01*
D02*
G37*
G36*
X00349631Y0017409D02*
X00349551Y00174465D01*
X0034931Y00174799D01*
X0034891Y00175095D01*
X0034835Y00175351D01*
X00347631Y00175568D01*
X0034675Y00175745D01*
X0034571Y00175883D01*
X0034315Y0017604D01*
X00341631Y0017606D01*
Y0018406D01*
X0034315Y0018408D01*
X0034675Y00184375D01*
X00347631Y00184552D01*
X0034835Y00184769D01*
X0034891Y00185025D01*
X0034931Y0018532D01*
X00349551Y00185655D01*
X00349631Y00186029D01*
Y0017409D01*
D02*
G37*
G36*
X0015464Y00185375D02*
X0015488Y0018504D01*
X0015528Y00184745D01*
X0015584Y00184489D01*
X00156559Y00184272D01*
X00157439Y00184095D01*
X00158479Y00183957D01*
X0016104Y001838D01*
X0016256Y0018378D01*
Y0017578D01*
X0016104Y0017576D01*
X00157439Y00175465D01*
X00156559Y00175288D01*
X0015584Y00175071D01*
X0015528Y00174815D01*
X0015488Y0017452D01*
X0015464Y00174185D01*
X00154559Y00173811D01*
Y00185749D01*
X0015464Y00185375D01*
D02*
G37*
G36*
X00473898Y00136175D02*
X00473217Y00136845D01*
X00471912Y00137973D01*
X00471288Y00138431D01*
X00470683Y00138819D01*
X00470098Y00139136D01*
X00469532Y00139383D01*
X00468985Y00139559D01*
X00468457Y00139665D01*
X00467949Y001397D01*
Y0014224D01*
X00468457Y00142275D01*
X00468985Y00142381D01*
X00469532Y00142557D01*
X00470098Y00142804D01*
X00470683Y00143121D01*
X00471288Y00143509D01*
X00471912Y00143967D01*
X00472555Y00144496D01*
X00473898Y00145765D01*
Y00136175D01*
D02*
G37*
G36*
X00508204Y00110607D02*
X00508312Y00109118D01*
X00508407Y00108464D01*
X00508529Y00107869D01*
X00508678Y00107334D01*
X00508854Y00106859D01*
X00509057Y00106444D01*
X00509288Y00106089D01*
X00509545Y00105793D01*
X00498835D01*
X00499092Y00106089D01*
X00499323Y00106444D01*
X00499526Y00106859D01*
X00499702Y00107334D01*
X00499851Y00107869D01*
X00499973Y00108464D01*
X00500068Y00109118D01*
X00500176Y00110607D01*
X0050019Y00111441D01*
X0050819D01*
X00508204Y00110607D01*
D02*
G37*
G36*
X0030664Y0011538D02*
X0030512Y001153D01*
X0030376Y0011506D01*
X0030256Y0011466D01*
X0030152Y001141D01*
X0030064Y0011338D01*
X0029992Y001125D01*
X0029936Y0011146D01*
X0029896Y0011026D01*
X00298761Y00109132D01*
X00298762Y00109118D01*
X00298857Y00108464D01*
X00298979Y00107869D01*
X00299128Y00107334D01*
X00299304Y00106859D01*
X00299507Y00106444D01*
X00299738Y00106089D01*
X00299995Y00105793D01*
X00289285D01*
X00289542Y00106089D01*
X00289773Y00106444D01*
X00289976Y00106859D01*
X00290152Y00107334D01*
X00290301Y00107869D01*
X00290423Y00108464D01*
X00290518Y00109118D01*
X00290519Y00109132D01*
X0029032Y0011026D01*
X0028992Y0011146D01*
X0028936Y001125D01*
X0028864Y0011338D01*
X0028776Y001141D01*
X0028672Y0011466D01*
X0028552Y0011506D01*
X0028416Y001153D01*
X0028264Y0011538D01*
X0029464Y0012338D01*
X0030664Y0011538D01*
D02*
G37*
G36*
X00457969Y00221079D02*
X00456662Y00219585D01*
X00456131Y00218878D01*
X00455681Y00218197D01*
X00455314Y00217543D01*
X00455028Y00216917D01*
X00454823Y00216316D01*
X00454701Y00215743D01*
X0045466Y00215196D01*
X0045212D01*
X00452079Y00215743D01*
X00451957Y00216316D01*
X00451752Y00216917D01*
X00451466Y00217543D01*
X00451099Y00218197D01*
X00450649Y00218878D01*
X00450118Y00219585D01*
X00448811Y00221079D01*
X00448035Y00221867D01*
X00458745D01*
X00457969Y00221079D01*
D02*
G37*
G36*
X00473094Y00162565D02*
X00472584Y00163288D01*
X0047207Y00163935D01*
X00471553Y00164506D01*
X00471032Y00165D01*
X00470507Y00165419D01*
X00469979Y00165761D01*
X00469447Y00166028D01*
X00468912Y00166218D01*
X00468373Y00166332D01*
X0046783Y0016637D01*
X00468318Y0016891D01*
X00468769Y00168941D01*
X00469265Y00169033D01*
X00469806Y00169187D01*
X00470393Y00169403D01*
X00471026Y0016968D01*
X00472428Y00170419D01*
X00473197Y00170881D01*
X00474872Y00171989D01*
X00473094Y00162565D01*
D02*
G37*
G36*
X00249335Y00221855D02*
X00247693Y00219254D01*
X00247292Y00218496D01*
X00246708Y00217144D01*
X00246526Y00216549D01*
X00246416Y00216009D01*
X0024638Y00215524D01*
X0024384Y0021509D01*
X00243796Y00215674D01*
X00243665Y00216262D01*
X00243446Y00216851D01*
X0024314Y00217444D01*
X00242747Y00218039D01*
X00242265Y00218636D01*
X00241697Y00219237D01*
X00241041Y0021984D01*
X00240297Y00220445D01*
X00239466Y00221054D01*
X00250028Y00222832D01*
X00249335Y00221855D01*
D02*
G37*
G36*
X00264348Y00161575D02*
X00263667Y00162245D01*
X00262362Y00163373D01*
X00261738Y00163831D01*
X00261133Y00164219D01*
X00260548Y00164536D01*
X00259982Y00164783D01*
X00259435Y00164959D01*
X00258907Y00165065D01*
X00258399Y001651D01*
Y0016764D01*
X00258907Y00167675D01*
X00259435Y00167781D01*
X00259982Y00167957D01*
X00260548Y00168204D01*
X00261133Y00168521D01*
X00261738Y00168909D01*
X00262362Y00169367D01*
X00263004Y00169896D01*
X00264348Y00171165D01*
Y00161575D01*
D02*
G37*
G36*
X00223019Y00221079D02*
X00221712Y00219585D01*
X00221181Y00218878D01*
X00220731Y00218197D01*
X00220364Y00217543D01*
X00220078Y00216917D01*
X00219873Y00216316D01*
X00219751Y00215743D01*
X0021971Y00215196D01*
X0021717D01*
X00217129Y00215743D01*
X00217007Y00216316D01*
X00216802Y00216917D01*
X00216516Y00217543D01*
X00216149Y00218197D01*
X00215699Y00218878D01*
X00215168Y00219585D01*
X00213861Y00221079D01*
X00213085Y00221867D01*
X00223795D01*
X00223019Y00221079D01*
D02*
G37*
G36*
X00264348Y00136175D02*
X00263667Y00136845D01*
X00262362Y00137973D01*
X00261738Y00138431D01*
X00261133Y00138819D01*
X00260548Y00139136D01*
X00259982Y00139383D01*
X00259435Y00139559D01*
X00258907Y00139665D01*
X00258399Y001397D01*
Y0014224D01*
X00258907Y00142275D01*
X00259435Y00142381D01*
X00259982Y00142557D01*
X00260548Y00142804D01*
X00261133Y00143121D01*
X00261738Y00143509D01*
X00262362Y00143967D01*
X00263004Y00144496D01*
X00264348Y00145765D01*
Y00136175D01*
D02*
G37*
D12*
X0050419Y0022733D02*
Y0024638D01*
X0050038Y0025019D02*
X0050419Y0024638D01*
X0040386Y0025019D02*
X0050038D01*
X0040005Y00254D02*
X0040386Y0025019D01*
X0040005Y00254D02*
Y0027432D01*
X0021717Y0029464D02*
X0022225Y0028956D01*
X0011938Y0029464D02*
X0021717D01*
X0022225Y0027432D02*
Y0028956D01*
X0010287Y0027813D02*
X0011938Y0029464D01*
X0010287Y0024384D02*
Y0027813D01*
X000381Y0023415D02*
X0009318D01*
X0010287Y0024384D01*
X0017145Y0042672D02*
Y0043942D01*
X0016764Y0044323D02*
X0017145Y0043942D01*
X0004718Y0044323D02*
X0016764D01*
X000381Y0043415D02*
X0004718Y0044323D01*
X0002013Y0043415D02*
X000381D01*
X0001651Y0023415D02*
Y0043053D01*
X0002013Y0043415D01*
X0001651Y0013716D02*
Y0023415D01*
X0001952Y0013415D02*
X000381D01*
X0001651Y0013716D02*
X0001952Y0013415D01*
X0001651Y0023415D02*
X000381D01*
X0047625Y0027432D02*
Y0029464D01*
X0046736Y0030353D02*
X0047625Y0029464D01*
X001143Y0030353D02*
X0046736D01*
X0009492Y0028415D02*
X001143Y0030353D01*
X000381Y0028415D02*
X0009492D01*
X0037719Y0022733D02*
X0040259D01*
X0035179D02*
Y0024257D01*
X0027813Y0024765D02*
X0034671D01*
X0035179Y0024257D01*
X0027305Y0025273D02*
X0027813Y0024765D01*
X0027305Y0025273D02*
Y0027432D01*
X0043942Y0014097D02*
X0047879D01*
X0042799Y001524D02*
X0043942Y0014097D01*
X0042799Y001524D02*
Y0022733D01*
X0047752Y0016764D02*
X0047879Y0016637D01*
X0045974Y0016764D02*
X0047752D01*
X0045339Y0017399D02*
X0045974Y0016764D01*
X0045339Y0017399D02*
Y0022733D01*
X0047879Y0019177D02*
Y0022733D01*
X003556Y0013081D02*
Y0014506D01*
X0034925Y0012446D02*
X003556Y0013081D01*
X0033401Y0012446D02*
X0034925D01*
X0032639Y0011684D02*
X0033401Y0012446D01*
X0032639Y0010033D02*
Y0011684D01*
X0026924Y0019177D02*
Y0022733D01*
X0024384D02*
X0024511Y0022606D01*
Y0017399D02*
Y0022606D01*
Y0017399D02*
X0025273Y0016637D01*
X0026924D01*
X0022606Y0014097D02*
X0026924D01*
X0021844Y0014859D02*
X0022606Y0014097D01*
X0021844Y0014859D02*
Y0022733D01*
X0016764D02*
X0019304D01*
X0024765Y0025527D02*
Y0027432D01*
X0024257Y0025019D02*
X0024765Y0025527D01*
X0014732Y0025019D02*
X0024257D01*
X0014224Y0024511D02*
X0014732Y0025019D01*
X0014224Y0022733D02*
Y0024511D01*
D13*
X003556Y0018006D02*
D03*
X0014859Y0017978D02*
D03*
D14*
X003556Y0014506D02*
D03*
X0014859Y0014478D02*
D03*
D15*
X0047879Y0019177D02*
D03*
X0026924D02*
D03*
D16*
X0050419D02*
D03*
X0047879Y0016637D02*
D03*
X0050419D02*
D03*
X0047879Y0014097D02*
D03*
X0050419D02*
D03*
X0029464Y0019177D02*
D03*
X0026924Y0016637D02*
D03*
X0029464D02*
D03*
X0026924Y0014097D02*
D03*
X0029464D02*
D03*
D17*
X0014605Y0027432D02*
D03*
D18*
X0017145D02*
D03*
X0019685D02*
D03*
X0022225D02*
D03*
X0024765D02*
D03*
X0027305D02*
D03*
X0029845D02*
D03*
X0032385D02*
D03*
X0034925D02*
D03*
X0037465D02*
D03*
X0040005D02*
D03*
X0042545D02*
D03*
X0045085D02*
D03*
X0047625D02*
D03*
X0050165D02*
D03*
Y0042672D02*
D03*
X0047625D02*
D03*
X0045085D02*
D03*
X0042545D02*
D03*
X0040005D02*
D03*
X0037465D02*
D03*
X0034925D02*
D03*
X0032385D02*
D03*
X0029845D02*
D03*
X0027305D02*
D03*
X0024765D02*
D03*
X0022225D02*
D03*
X0019685D02*
D03*
X0017145D02*
D03*
X0014605D02*
D03*
D19*
X000381Y0043415D02*
D03*
D20*
Y0038415D02*
D03*
Y0033415D02*
D03*
Y0028415D02*
D03*
Y0023415D02*
D03*
Y0018415D02*
D03*
Y0013415D02*
D03*
Y0008415D02*
D03*
X0015654Y0004191D02*
D03*
X0020654D02*
D03*
X0025654D02*
D03*
X0030654D02*
D03*
X0035654D02*
D03*
X0040654D02*
D03*
X0045654D02*
D03*
D21*
X0010654D02*
D03*
D22*
X0024384Y0010033D02*
D03*
X0037719D02*
D03*
X0019304D02*
D03*
X0040259D02*
D03*
X0021844D02*
D03*
X0045339D02*
D03*
X0042799D02*
D03*
X0016764D02*
D03*
X0026924Y0022733D02*
D03*
X0024384D02*
D03*
X0021844D02*
D03*
X0019304D02*
D03*
X0016764D02*
D03*
X0014224D02*
D03*
X0011684D02*
D03*
Y0010033D02*
D03*
X0014224D02*
D03*
X0026924D02*
D03*
X0029464D02*
D03*
X0047879Y0022733D02*
D03*
X0045339D02*
D03*
X0042799D02*
D03*
X0040259D02*
D03*
X0037719D02*
D03*
X0035179D02*
D03*
X0032639D02*
D03*
Y0010033D02*
D03*
X0035179D02*
D03*
X0047879D02*
D03*
X0050419D02*
D03*
D23*
X0003Y0003D02*
D03*
X0051D02*
D03*
Y0049D02*
D03*
X0003D02*
D03*
D24*
X0029464Y0022733D02*
D03*
X0050419D02*
D03*
D25*
Y0010033D02*
Y00114694D01*
X00499504Y0011938D02*
X0050419Y00114694D01*
X0042291Y0011938D02*
X00499504D01*
X0041783Y0012446D02*
X0042291Y0011938D01*
X0041783Y0012446D02*
Y0017145D01*
X0040922Y0018006D02*
X0041783Y0017145D01*
X003556Y0018006D02*
X0040922D01*
X0029464Y0010033D02*
Y0011938D01*
X003175D01*
X00335Y0018006D02*
X003556D01*
X0032639Y0017145D02*
X00335Y0018006D01*
X0032639Y0012827D02*
Y0017145D01*
X003175Y0011938D02*
X0032639Y0012827D01*
X0020828Y0011938D02*
X0029464D01*
X0019812Y0012954D02*
X0020828Y0011938D01*
X0019812Y0012954D02*
Y0016764D01*
X0018598Y0017978D02*
X0019812Y0016764D01*
X0014859Y0017978D02*
X0018598D01*
M02*
