G04*
G04 #@! TF.GenerationSoftware,Altium Limited,Altium Designer,26.4.1 (12)*
G04*
G04 Layer_Color=128*
%FSTAX44Y44*%
%MOMM*%
G71*
G04*
G04 #@! TF.SameCoordinates,17E444B0-1469-44B2-96D2-A362B26487A7*
G04*
G04*
G04 #@! TF.FilePolarity,Positive*
G04*
G01*
G75*
%ADD10C,0.1270*%
D10*
X0035135Y0018006D02*
X0035985D01*
X003556Y0017581D02*
Y0018431D01*
X0035135Y0014506D02*
X0035985D01*
X003556Y0014081D02*
Y0014931D01*
X0014434Y0017978D02*
X0015284D01*
X0014859Y0017553D02*
Y0018403D01*
X0014434Y0014478D02*
X0015284D01*
X0014859Y0014053D02*
Y0014903D01*
X0047369Y0019177D02*
X0048389D01*
X0047879Y0018667D02*
Y0019687D01*
X0049909Y0019177D02*
X0050929D01*
X0050419Y0018667D02*
Y0019687D01*
X0047369Y0016637D02*
X0048389D01*
X0047879Y0016127D02*
Y0017147D01*
X0049909Y0016637D02*
X0050929D01*
X0050419Y0016127D02*
Y0017147D01*
X0047369Y0014097D02*
X0048389D01*
X0047879Y0013587D02*
Y0014607D01*
X0049909Y0014097D02*
X0050929D01*
X0050419Y0013587D02*
Y0014607D01*
X0026414Y0019177D02*
X0027434D01*
X0026924Y0018667D02*
Y0019687D01*
X0028954Y0019177D02*
X0029974D01*
X0029464Y0018667D02*
Y0019687D01*
X0026414Y0016637D02*
X0027434D01*
X0026924Y0016127D02*
Y0017147D01*
X0028954Y0016637D02*
X0029974D01*
X0029464Y0016127D02*
Y0017147D01*
X0026414Y0014097D02*
X0027434D01*
X0026924Y0013587D02*
Y0014607D01*
X0028954Y0014097D02*
X0029974D01*
X0029464Y0013587D02*
Y0014607D01*
X0014155Y0027432D02*
X0015055D01*
X0014605Y0026982D02*
Y0027882D01*
X0016695Y0027432D02*
X0017595D01*
X0017145Y0026982D02*
Y0027882D01*
X0019235Y0027432D02*
X0020135D01*
X0019685Y0026982D02*
Y0027882D01*
X0021775Y0027432D02*
X0022675D01*
X0022225Y0026982D02*
Y0027882D01*
X0024315Y0027432D02*
X0025215D01*
X0024765Y0026982D02*
Y0027882D01*
X0026855Y0027432D02*
X0027755D01*
X0027305Y0026982D02*
Y0027882D01*
X0029395Y0027432D02*
X0030295D01*
X0029845Y0026982D02*
Y0027882D01*
X0031935Y0027432D02*
X0032835D01*
X0032385Y0026982D02*
Y0027882D01*
X0034475Y0027432D02*
X0035375D01*
X0034925Y0026982D02*
Y0027882D01*
X0037015Y0027432D02*
X0037915D01*
X0037465Y0026982D02*
Y0027882D01*
X0039555Y0027432D02*
X0040455D01*
X0040005Y0026982D02*
Y0027882D01*
X0042095Y0027432D02*
X0042995D01*
X0042545Y0026982D02*
Y0027882D01*
X0044635Y0027432D02*
X0045535D01*
X0045085Y0026982D02*
Y0027882D01*
X0047175Y0027432D02*
X0048075D01*
X0047625Y0026982D02*
Y0027882D01*
X0049715Y0027432D02*
X0050615D01*
X0050165Y0026982D02*
Y0027882D01*
X0049715Y0042672D02*
X0050615D01*
X0050165Y0042222D02*
Y0043122D01*
X0047175Y0042672D02*
X0048075D01*
X0047625Y0042222D02*
Y0043122D01*
X0044635Y0042672D02*
X0045535D01*
X0045085Y0042222D02*
Y0043122D01*
X0042095Y0042672D02*
X0042995D01*
X0042545Y0042222D02*
Y0043122D01*
X0039555Y0042672D02*
X0040455D01*
X0040005Y0042222D02*
Y0043122D01*
X0037015Y0042672D02*
X0037915D01*
X0037465Y0042222D02*
Y0043122D01*
X0034475Y0042672D02*
X0035375D01*
X0034925Y0042222D02*
Y0043122D01*
X0031935Y0042672D02*
X0032835D01*
X0032385Y0042222D02*
Y0043122D01*
X0029395Y0042672D02*
X0030295D01*
X0029845Y0042222D02*
Y0043122D01*
X0026855Y0042672D02*
X0027755D01*
X0027305Y0042222D02*
Y0043122D01*
X0024315Y0042672D02*
X0025215D01*
X0024765Y0042222D02*
Y0043122D01*
X0021775Y0042672D02*
X0022675D01*
X0022225Y0042222D02*
Y0043122D01*
X0019235Y0042672D02*
X0020135D01*
X0019685Y0042222D02*
Y0043122D01*
X0016695Y0042672D02*
X0017595D01*
X0017145Y0042222D02*
Y0043122D01*
X0014155Y0042672D02*
X0015055D01*
X0014605Y0042222D02*
Y0043122D01*
X000296Y0043415D02*
X000466D01*
X000381Y0042565D02*
Y0044265D01*
X000296Y0038415D02*
X000466D01*
X000381Y0037565D02*
Y0039265D01*
X000296Y0033415D02*
X000466D01*
X000381Y0032565D02*
Y0034265D01*
X000296Y0028415D02*
X000466D01*
X000381Y0027565D02*
Y0029265D01*
X000296Y0023415D02*
X000466D01*
X000381Y0022565D02*
Y0024265D01*
X000296Y0018415D02*
X000466D01*
X000381Y0017565D02*
Y0019265D01*
X000296Y0013415D02*
X000466D01*
X000381Y0012565D02*
Y0014265D01*
X000296Y0008415D02*
X000466D01*
X000381Y0007565D02*
Y0009265D01*
X0009804Y0004191D02*
X0011504D01*
X0010654Y0003341D02*
Y0005041D01*
X0014804Y0004191D02*
X0016504D01*
X0015654Y0003341D02*
Y0005041D01*
X0019804Y0004191D02*
X0021504D01*
X0020654Y0003341D02*
Y0005041D01*
X0024804Y0004191D02*
X0026504D01*
X0025654Y0003341D02*
Y0005041D01*
X0029804Y0004191D02*
X0031504D01*
X0030654Y0003341D02*
Y0005041D01*
X0034804Y0004191D02*
X0036504D01*
X0035654Y0003341D02*
Y0005041D01*
X0039804Y0004191D02*
X0041504D01*
X0040654Y0003341D02*
Y0005041D01*
X0044804Y0004191D02*
X0046504D01*
X0045654Y0003341D02*
Y0005041D01*
X0023874Y0010033D02*
X0024894D01*
X0024384Y0009523D02*
Y0010543D01*
X0037209Y0010033D02*
X0038229D01*
X0037719Y0009523D02*
Y0010543D01*
X0018794Y0010033D02*
X0019814D01*
X0019304Y0009523D02*
Y0010543D01*
X0039749Y0010033D02*
X0040769D01*
X0040259Y0009523D02*
Y0010543D01*
X0021334Y0010033D02*
X0022354D01*
X0021844Y0009523D02*
Y0010543D01*
X0044829Y0010033D02*
X0045849D01*
X0045339Y0009523D02*
Y0010543D01*
X0042289Y0010033D02*
X0043309D01*
X0042799Y0009523D02*
Y0010543D01*
X0016254Y0010033D02*
X0017274D01*
X0016764Y0009523D02*
Y0010543D01*
X00014Y0003D02*
X00046D01*
X0003Y00014D02*
Y00046D01*
X00494Y0003D02*
X00526D01*
X0051Y00014D02*
Y00046D01*
X00494Y0049D02*
X00526D01*
X0051Y00474D02*
Y00506D01*
X00014Y0049D02*
X00046D01*
X0003Y00474D02*
Y00506D01*
X0028954Y0022733D02*
X0029974D01*
X0029464Y0022223D02*
Y0023243D01*
X0026414Y0022733D02*
X0027434D01*
X0026924Y0022223D02*
Y0023243D01*
X0023874Y0022733D02*
X0024894D01*
X0024384Y0022223D02*
Y0023243D01*
X0021334Y0022733D02*
X0022354D01*
X0021844Y0022223D02*
Y0023243D01*
X0018794Y0022733D02*
X0019814D01*
X0019304Y0022223D02*
Y0023243D01*
X0016254Y0022733D02*
X0017274D01*
X0016764Y0022223D02*
Y0023243D01*
X0013714Y0022733D02*
X0014734D01*
X0014224Y0022223D02*
Y0023243D01*
X0011174Y0022733D02*
X0012194D01*
X0011684Y0022223D02*
Y0023243D01*
X0011174Y0010033D02*
X0012194D01*
X0011684Y0009523D02*
Y0010543D01*
X0013714Y0010033D02*
X0014734D01*
X0014224Y0009523D02*
Y0010543D01*
X0026414Y0010033D02*
X0027434D01*
X0026924Y0009523D02*
Y0010543D01*
X0028954Y0010033D02*
X0029974D01*
X0029464Y0009523D02*
Y0010543D01*
X0049909Y0022733D02*
X0050929D01*
X0050419Y0022223D02*
Y0023243D01*
X0047369Y0022733D02*
X0048389D01*
X0047879Y0022223D02*
Y0023243D01*
X0044829Y0022733D02*
X0045849D01*
X0045339Y0022223D02*
Y0023243D01*
X0042289Y0022733D02*
X0043309D01*
X0042799Y0022223D02*
Y0023243D01*
X0039749Y0022733D02*
X0040769D01*
X0040259Y0022223D02*
Y0023243D01*
X0037209Y0022733D02*
X0038229D01*
X0037719Y0022223D02*
Y0023243D01*
X0034669Y0022733D02*
X0035689D01*
X0035179Y0022223D02*
Y0023243D01*
X0032129Y0022733D02*
X0033149D01*
X0032639Y0022223D02*
Y0023243D01*
X0032129Y0010033D02*
X0033149D01*
X0032639Y0009523D02*
Y0010543D01*
X0034669Y0010033D02*
X0035689D01*
X0035179Y0009523D02*
Y0010543D01*
X0047369Y0010033D02*
X0048389D01*
X0047879Y0009523D02*
Y0010543D01*
X0049909Y0010033D02*
X0050929D01*
X0050419Y0009523D02*
Y0010543D01*
M02*
