G04*
G04 #@! TF.GenerationSoftware,Altium Limited,Altium Designer,26.4.1 (12)*
G04*
G04 Layer_Color=1930808*
%FSTAX44Y44*%
%MOMM*%
G71*
G04*
G04 #@! TF.SameCoordinates,17E444B0-1469-44B2-96D2-A362B26487A7*
G04*
G04*
G04 #@! TF.FilePolarity,Positive*
G04*
G01*
G75*
%ADD28C,0.0500*%
D28*
X003981Y0016256D02*
G03*
X003981Y0016256I-000425J0D01*
G01*
X0019109Y0016228D02*
G03*
X0019109Y0016228I-000425J0D01*
G01*
X0046359Y0020697D02*
X0051939D01*
Y0012577D02*
Y0020697D01*
X0046359Y0012577D02*
X0051939D01*
X0046359D02*
Y0020697D01*
X0025404D02*
X0030984D01*
Y0012577D02*
Y0020697D01*
X0025404Y0012577D02*
X0030984D01*
X0025404D02*
Y0020697D01*
X0010535Y0025802D02*
X0056035D01*
Y0044302D01*
X0010535D02*
X0056035D01*
X0010535Y0025802D02*
Y0044302D01*
X-000644Y0046165D02*
X000606D01*
Y0005665D02*
Y0046165D01*
X-000644Y0005665D02*
X000606D01*
X-000644D02*
Y0046165D01*
X0007904Y-0006059D02*
Y0006441D01*
X0048404D01*
Y-0006059D02*
Y0006441D01*
X0007904Y-0006059D02*
X0048404D01*
X0010164Y0024253D02*
X0030984D01*
X0010164Y0008513D02*
Y0024253D01*
Y0008513D02*
X0030984D01*
Y0024253D01*
X0031119D02*
X0051939D01*
X0031119Y0008513D02*
Y0024253D01*
Y0008513D02*
X0051939D01*
Y0024253D01*
M02*
