M48
;Layer_Color=9474304
;FILE_FORMAT=2:4
INCH,LZ
;TYPE=PLATED
T01F00S00C0.0335
T02F00S00C0.0354
T03F00S00C0.0402
T04F00S00C0.0669
T05F00S00C0.1260
%
T01
X03805Y01705
Y018428
X0462Y018439
Y017061
T02
X04695Y02215
X04795
X04895
X04995
X05095
X05195
Y02815
X05095
X04995
X04895
X04795
X04695
X04595
X04495
X04395
X04295
X04195
X04095
X03995
X03895
X03795
Y02215
X03895
X03995
X04095
X04195
X04295
X04395
X04495
X04595
T03
X0368Y0153
X0378
X0388
X0398
X0408
X0418
X0428
X0438
X04505
X04605
X04705
X04805
X04905
X05005
X05105
X05205
Y0169
Y0179
Y0189
X05105
Y0179
Y0169
Y0203
X05205
X05005
X04905
X04805
X04705
X04605
X04505
X0438
X0428
X0418
X0408
X0398
X0388
X0378
X0368
X0428Y0189
X0438
Y0179
X0428
Y0169
X0438
T04
X0337Y014663
X036394Y013
X038363
X040332
X0423
X044268
X046237
X048206
X050174
X0337Y016631
Y0186
Y020568
Y022537
Y024506
Y026474
Y028443
T05
X033381Y012531
X052279
Y030641
X033381
M30
